999
DXF file: alpha_arm_footprint_side.dxf
999
Pro/ENGINEER 2023154 by Parametric Technology Corporation
  0
SECTION
  2
HEADER
  9
$EXTMAX
 10
210.0
 20
297.0
 30
0.0
  9
$EXTMIN
 10
0.0
 20
0.0
 30
0.0
  9
$LIMMIN
 10
0.0
 20
0.0
  9
$LIMMAX
 10
210.0
 20
297.0
  9
$VIEWCTR
 10
105.0
 20
148.5
  9
$VIEWSIZE
 40
297.0
  9
$CLAYER
  8
0
  9
$LTSCALE
 40
19.36
  9
$CELTYPE
  6
BYLAYER
  9
$DIMSCALE
 40
1.0
  9
$DIMASZ
 40
2.0
  9
$DIMEXO
 40
0.5
  9
$DIMDLI
 40
13.376
  9
$DIMEXE
 40
2.0
  9
$DIMCEN
 40
3.168
  9
$DIMLFAC
 40
1.0
  9
$DIMBLK
  1
_FILLED
  9
$DIMALT
 70
0
  9
$DIMALTF
 40
0.0393700787
  9
$DIMTXT
 40
2.5
  9
$AUNITS
 70
0
  9
$PDMODE
 70
3
  9
$PDSIZE
 40
0.3125
  9
$TILEMODE
 70
1
  0
ENDSEC
  0
SECTION
  2
TABLES
  0
TABLE
  2
LTYPE
 70
6
  0
LTYPE
  2
BYBLOCK
 70
0
  3

 72
65
 73
0
 40
0.0
  0
LTYPE
  2
BYLAYER
 70
0
  3

 72
65
 73
0
 40
0.0
  0
LTYPE
  2
CONTINUOUS
 70
64
  3
Solid line
 72
65
 73
0
 40
0.0
  0
LTYPE
  2
CENTER
 70
64
  3
____ _ ____ _ ____ _ ____ _ ____ _ ____ _ ____
 72
65
 73
4
 40
0.6
 49
0.375
 49
-0.075
 49
0.075
 49
-0.075
  0
LTYPE
  2
HIDDEN
 70
64
  3
- - - - - - - - - - - - - - - - - - - -
 72
65
 73
2
 40
0.2
 49
0.1
 49
-0.1
  0
LTYPE
  2
PHANTOM
 70
64
  3
_____ _ _ _____ _ _ _____ _ _ _____
 72
65
 73
6
 40
0.8
 49
0.45
 49
-0.05
 49
0.1
 49
-0.05
 49
0.1
 49
-0.05
  0
LTYPE
  2
DOT
 70
64
  3
. . . . . . . . . . . . . . . . . . . .
 72
65
 73
2
 40
0.2
 49
0.1
 49
-0.1
  0
LTYPE
  2
DASHED
 70
64
  3
- - - - - - - - - - - - - - - - - - - -
 72
65
 73
2
 40
0.2
 49
0.1
 49
-0.1
  0
ENDTAB
  0
TABLE
  2
LAYER
 70
36
  0
LAYER
  2
0
 70
0
 62
7
  6
CONTINUOUS
  0
LAYER
  2
DEFAULT_1
 70
0
 62
7
  6
CENTER
  0
LAYER
  2
DEFAULT_2
 70
0
 62
8
  6
HIDDEN
  0
LAYER
  2
DEFAULT_3
 70
0
 62
7
  6
PHANTOM
  0
LAYER
  2
AXES
 70
0
 62
7
  6
CONTINUOUS
  0
LAYER
  2
COSMETIC
 70
0
 62
7
  6
CONTINUOUS
  0
LAYER
  2
COURBES
 70
0
 62
7
  6
CONTINUOUS
  0
LAYER
  2
FILETAGES
 70
0
 62
7
  6
CONTINUOUS
  0
LAYER
  2
PLANS
 70
0
 62
7
  6
CONTINUOUS
  0
LAYER
  2
PLANS_BASE_PRT
 70
0
 62
7
  6
CONTINUOUS
  0
LAYER
  2
PLANS_COUPES
 70
0
 62
7
  6
CONTINUOUS
  0
LAYER
  2
POINTS
 70
0
 62
7
  6
CONTINUOUS
  0
LAYER
  2
REPERES
 70
0
 62
7
  6
CONTINUOUS
  0
LAYER
  2
SOLIDE
 70
0
 62
7
  6
CONTINUOUS
  0
LAYER
  2
SURFACES
 70
0
 62
7
  6
CONTINUOUS
  0
ENDTAB
  0
TABLE
  2
STYLE
 70
1
  0
STYLE
  2
STANDARD
 70
0
 40
0.0
 41
0.8
 50
0.0
 71
0
 42
0.2
  3
txt
  4

  0
STYLE
  2
TEXTSTYLE_1
 70
0
 40
0.0
 41
0.8
 50
0.0
 71
0
 42
0.2
  3
gdt
  4

  0
ENDTAB
  0
ENDSEC
  0
SECTION
  2
BLOCKS
  0
BLOCK
  8
0
  2
_FILLED
 70
64
 10
0.0
 20
0.0
  0
SOLID
  8
0
  6
BYBLOCK
 62
0
 10
0.0
 20
0.0
 11
-1.0
 21
0.2
 12
-1.0
 22
-0.2
 13
-1.0
 23
-0.2
  0
ENDBLK
  8
0
  6
BYBLOCK
 62
0
  0
ENDSEC
  0
SECTION
  2
ENTITIES
  0
LINE
  8
0
 62
7
  6
CONTINUOUS
 10
0.0
 20
0.0
 11
210.0
 21
0.0
  0
LINE
  8
0
 62
7
  6
CONTINUOUS
 10
0.0
 20
0.0
 11
0.0
 21
297.0
  0
LINE
  8
0
 62
7
  6
CONTINUOUS
 10
210.0
 20
0.0
 11
210.0
 21
297.0
  0
LINE
  8
0
 62
7
  6
CONTINUOUS
 10
0.0
 20
297.0
 11
210.0
 21
297.0
  0
LINE
  8
AXES
 62
7
  6
CONTINUOUS
 10
112.8519747283
 20
129.6593907173
 11
87.8519747283
 21
129.6593907173
  0
LINE
  8
0
 62
7
  6
CONTINUOUS
 10
112.8519747283
 20
131.1593907173
 11
87.8519747283
 21
131.1593907173
  0
LINE
  8
0
 62
7
  6
CONTINUOUS
 10
112.8519747283
 20
132.1593907173
 11
87.8519747283
 21
132.1593907173
  0
LINE
  8
AXES
 62
7
  6
CONTINUOUS
 10
86.8519747283
 20
193.1593907173
 11
86.8519747283
 21
184.1593907173
  0
LINE
  8
AXES
 62
7
  6
CONTINUOUS
 10
87.1019747283
 20
179.6593907173
 11
87.1019747283
 21
184.1593907173
  0
LINE
  8
0
 62
7
  6
CONTINUOUS
 10
87.8519747283
 20
129.6593907173
 11
87.8519747283
 21
131.1593907173
  0
LINE
  8
0
 62
7
  6
CONTINUOUS
 10
87.8519747283
 20
132.1593907173
 11
87.8519747283
 21
179.6593907173
  0
LINE
  8
0
 62
7
  6
CONTINUOUS
 10
86.8519747283
 20
193.1593907173
 11
113.3519747283
 21
219.6593907173
  0
LINE
  8
AXES
 62
7
  6
CONTINUOUS
 10
113.6019747283
 20
179.6593907173
 11
87.1019747283
 21
179.6593907173
  0
LINE
  8
AXES
 62
7
  6
CONTINUOUS
 10
86.8519747283
 20
184.1593907173
 11
113.8519747283
 21
184.1593907173
  0
LINE
  8
0
 62
7
  6
CONTINUOUS
 10
142.3208467758
 20
220.1282627648
 11
115.3831026808
 21
193.1905186698
  0
LINE
  8
AXES
 62
7
  6
CONTINUOUS
 10
115.306892875
 20
239.6593781718
 11
115.3097552148
 21
235.6593791959
  0
LINE
  8
0
 62
7
  6
CONTINUOUS
 10
112.8519747283
 20
129.6593907173
 11
112.8519747283
 21
131.1593907173
  0
LINE
  8
0
 62
7
  6
CONTINUOUS
 10
112.8519747283
 20
132.1593907173
 11
112.8519747283
 21
179.6593907173
  0
LINE
  8
0
 62
7
  6
CONTINUOUS
 10
113.3519747283
 20
219.6593907173
 11
113.3519747283
 21
220.1593907173
  0
LINE
  8
AXES
 62
7
  6
CONTINUOUS
 10
113.6019747283
 20
179.6593907173
 11
113.6019747283
 21
184.1593907173
  0
LINE
  8
0
 62
7
  6
CONTINUOUS
 10
113.8519747283
 20
184.1593907173
 11
113.8519747283
 21
191.2462555695
  0
LINE
  8
AXES
 62
7
  6
CONTINUOUS
 10
115.3208467758
 20
249.6593907173
 11
115.3208467758
 21
239.659388157
  0
LINE
  8
0
 62
7
  6
CONTINUOUS
 10
115.3208467758
 20
235.6593871328
 11
115.3208467758
 21
222.1591484652
  0
LINE
  8
AXES
 62
7
  6
CONTINUOUS
 10
119.2243286702
 20
239.6621814305
 11
119.22719101
 21
235.6621824546
  0
LINE
  8
AXES
 62
7
  6
CONTINUOUS
 10
131.3538428353
 20
239.6708611303
 11
131.356705175
 21
235.6708621544
  0
LINE
  8
AXES
 62
7
  6
CONTINUOUS
 10
139.1793836872
 20
235.6764599467
 11
139.1765213474
 21
239.6764589226
  0
LINE
  8
0
 62
7
  6
CONTINUOUS
 10
140.3208467758
 20
218.1282627648
 11
140.3208467758
 21
249.6772803452
  0
LINE
  8
0
 62
7
  6
CONTINUOUS
 10
142.3208467758
 20
220.1282627648
 11
142.3208467758
 21
249.6787115154
  0
LINE
  8
AXES
 62
7
  6
CONTINUOUS
 10
115.3097552148
 20
235.6593791959
 11
139.1793836872
 21
235.6764599467
  0
LINE
  8
AXES
 62
7
  6
CONTINUOUS
 10
115.306892875
 20
239.6593781718
 11
139.1765213474
 21
239.6764589226
  0
LINE
  8
0
 62
7
  6
CONTINUOUS
 10
115.3208467758
 20
249.6593907173
 11
142.3208467758
 21
249.6787115154
  0
ARC
  8
0
 62
7
  6
CONTINUOUS
 10
115.8519747283
 20
191.2462555695
 40
2.0
 50
103.5583806453
 51
180.0
  0
ARC
  8
0
 62
7
  6
CONTINUOUS
 10
113.3208467758
 20
222.1591484652
 40
2.0
 50
270.8917861587
 51
360.0
  0
ARC
  8
0
 62
7
  6
CONTINUOUS
 10
87.8519747283
 20
131.6593907173
 40
0.5
 50
270.0
 51
90.0
  0
ARC
  8
0
 62
7
  6
CONTINUOUS
 10
112.8519747283
 20
131.6593907173
 40
0.5
 50
90.0
 51
270.0
  0
ENDSEC
  0
EOF
