999
DXF file: beta_arm_footprint_with_pom_platform.dxf
999
Pro/ENGINEER 2023154 by Parametric Technology Corporation
  0
SECTION
  2
HEADER
  9
$EXTMAX
 10
210.0
 20
297.0
 30
0.0
  9
$EXTMIN
 10
0.0
 20
0.0
 30
0.0
  9
$LIMMIN
 10
0.0
 20
0.0
  9
$LIMMAX
 10
210.0
 20
297.0
  9
$VIEWCTR
 10
105.0
 20
148.5
  9
$VIEWSIZE
 40
297.0
  9
$CLAYER
  8
0
  9
$LTSCALE
 40
19.36
  9
$CELTYPE
  6
BYLAYER
  9
$DIMSCALE
 40
1.0
  9
$DIMASZ
 40
2.0
  9
$DIMEXO
 40
0.5
  9
$DIMDLI
 40
13.376
  9
$DIMEXE
 40
2.0
  9
$DIMCEN
 40
3.168
  9
$DIMLFAC
 40
1.0
  9
$DIMBLK
  1
_FILLED
  9
$DIMALT
 70
0
  9
$DIMALTF
 40
0.0393700787
  9
$DIMTXT
 40
2.5
  9
$AUNITS
 70
0
  9
$PDMODE
 70
3
  9
$PDSIZE
 40
0.3125
  9
$TILEMODE
 70
1
  0
ENDSEC
  0
SECTION
  2
TABLES
  0
TABLE
  2
LTYPE
 70
6
  0
LTYPE
  2
BYBLOCK
 70
0
  3

 72
65
 73
0
 40
0.0
  0
LTYPE
  2
BYLAYER
 70
0
  3

 72
65
 73
0
 40
0.0
  0
LTYPE
  2
CONTINUOUS
 70
64
  3
Solid line
 72
65
 73
0
 40
0.0
  0
LTYPE
  2
CENTER
 70
64
  3
____ _ ____ _ ____ _ ____ _ ____ _ ____ _ ____
 72
65
 73
4
 40
0.6
 49
0.375
 49
-0.075
 49
0.075
 49
-0.075
  0
LTYPE
  2
HIDDEN
 70
64
  3
- - - - - - - - - - - - - - - - - - - -
 72
65
 73
2
 40
0.2
 49
0.1
 49
-0.1
  0
LTYPE
  2
PHANTOM
 70
64
  3
_____ _ _ _____ _ _ _____ _ _ _____
 72
65
 73
6
 40
0.8
 49
0.45
 49
-0.05
 49
0.1
 49
-0.05
 49
0.1
 49
-0.05
  0
LTYPE
  2
DOT
 70
64
  3
. . . . . . . . . . . . . . . . . . . .
 72
65
 73
2
 40
0.2
 49
0.1
 49
-0.1
  0
LTYPE
  2
DASHED
 70
64
  3
- - - - - - - - - - - - - - - - - - - -
 72
65
 73
2
 40
0.2
 49
0.1
 49
-0.1
  0
ENDTAB
  0
TABLE
  2
LAYER
 70
36
  0
LAYER
  2
0
 70
0
 62
7
  6
CONTINUOUS
  0
LAYER
  2
DEFAULT_1
 70
0
 62
7
  6
CENTER
  0
LAYER
  2
DEFAULT_2
 70
0
 62
8
  6
HIDDEN
  0
LAYER
  2
DEFAULT_3
 70
0
 62
7
  6
PHANTOM
  0
LAYER
  2
AXES
 70
0
 62
7
  6
CONTINUOUS
  0
LAYER
  2
COSMETIC
 70
0
 62
7
  6
CONTINUOUS
  0
LAYER
  2
COURBES
 70
0
 62
7
  6
CONTINUOUS
  0
LAYER
  2
FILETAGES
 70
0
 62
7
  6
CONTINUOUS
  0
LAYER
  2
NONE
 70
0
 62
7
  6
CONTINUOUS
  0
LAYER
  2
PLANS
 70
0
 62
7
  6
CONTINUOUS
  0
LAYER
  2
PLANS_BASE_ASM
 70
0
 62
7
  6
CONTINUOUS
  0
LAYER
  2
PLANS_BASE_PRT
 70
0
 62
7
  6
CONTINUOUS
  0
LAYER
  2
PLANS_COUPES
 70
0
 62
7
  6
CONTINUOUS
  0
LAYER
  2
POINTS
 70
0
 62
7
  6
CONTINUOUS
  0
LAYER
  2
REPERES
 70
0
 62
7
  6
CONTINUOUS
  0
LAYER
  2
SOLIDE
 70
0
 62
7
  6
CONTINUOUS
  0
LAYER
  2
SURFACES
 70
0
 62
7
  6
CONTINUOUS
  0
ENDTAB
  0
TABLE
  2
STYLE
 70
1
  0
STYLE
  2
STANDARD
 70
0
 40
0.0
 41
0.8
 50
0.0
 71
0
 42
0.2
  3
txt
  4

  0
STYLE
  2
TEXTSTYLE_1
 70
0
 40
0.0
 41
0.8
 50
0.0
 71
0
 42
0.2
  3
gdt
  4

  0
ENDTAB
  0
ENDSEC
  0
SECTION
  2
BLOCKS
  0
BLOCK
  8
0
  2
_FILLED
 70
64
 10
0.0
 20
0.0
  0
SOLID
  8
0
  6
BYBLOCK
 62
0
 10
0.0
 20
0.0
 11
-1.0
 21
0.2
 12
-1.0
 22
-0.2
 13
-1.0
 23
-0.2
  0
ENDBLK
  8
0
  6
BYBLOCK
 62
0
  0
ENDSEC
  0
SECTION
  2
ENTITIES
  0
LINE
  8
0
 62
7
  6
CONTINUOUS
 10
0.0
 20
0.0
 11
210.0
 21
0.0
  0
LINE
  8
0
 62
7
  6
CONTINUOUS
 10
0.0
 20
0.0
 11
0.0
 21
297.0
  0
LINE
  8
0
 62
7
  6
CONTINUOUS
 10
210.0
 20
0.0
 11
210.0
 21
297.0
  0
LINE
  8
0
 62
7
  6
CONTINUOUS
 10
0.0
 20
297.0
 11
210.0
 21
297.0
  0
POLYLINE
  8
0
 62
7
  6
CONTINUOUS
 66
1
 70
0
  0
VERTEX
  8
0
 62
7
  6
CONTINUOUS
 10
63.4307814326
 20
175.5329881538
  0
VERTEX
  8
0
 62
7
  6
CONTINUOUS
 10
63.4772932058
 20
174.5974061854
  0
VERTEX
  8
0
 62
7
  6
CONTINUOUS
 10
63.6133210773
 20
173.6796300947
  0
VERTEX
  8
0
 62
7
  6
CONTINUOUS
 10
63.8401634914
 20
172.7753794797
  0
VERTEX
  8
0
 62
7
  6
CONTINUOUS
 10
64.153925115
 20
171.8974955463
  0
VERTEX
  8
0
 62
7
  6
CONTINUOUS
 10
64.5528191743
 20
171.0548746594
  0
VERTEX
  8
0
 62
7
  6
CONTINUOUS
 10
65.0318184359
 20
170.2550709401
  0
VERTEX
  8
0
 62
7
  6
CONTINUOUS
 10
65.5874348653
 20
169.5064612294
  0
VERTEX
  8
0
 62
7
  6
CONTINUOUS
 10
66.2132640918
 20
168.8154737325
  0
VERTEX
  8
0
 62
7
  6
CONTINUOUS
 10
66.9042508637
 20
168.1896438494
  0
VERTEX
  8
0
 62
7
  6
CONTINUOUS
 10
67.6528597889
 20
167.6340268369
  0
VERTEX
  8
0
 62
7
  6
CONTINUOUS
 10
68.452662669
 20
167.1550270728
  0
VERTEX
  8
0
 62
7
  6
CONTINUOUS
 10
69.2952826718
 20
166.756132595
  0
VERTEX
  8
0
 62
7
  6
CONTINUOUS
 10
70.173165684
 20
166.4423706421
  0
VERTEX
  8
0
 62
7
  6
CONTINUOUS
 10
71.0774153502
 20
166.21552799
  0
VERTEX
  8
0
 62
7
  6
CONTINUOUS
 10
71.9996419427
 20
166.0790615443
  0
VERTEX
  8
0
 62
7
  6
CONTINUOUS
 10
72.9307714647
 20
166.0329881538
  0
SEQEND
  0
POLYLINE
  8
0
 62
7
  6
CONTINUOUS
 66
1
 70
0
  0
VERTEX
  8
0
 62
7
  6
CONTINUOUS
 10
62.4322311047
 20
175.5329881538
  0
VERTEX
  8
0
 62
7
  6
CONTINUOUS
 10
62.4776876981
 20
174.5600903879
  0
VERTEX
  8
0
 62
7
  6
CONTINUOUS
 10
62.6110133704
 20
173.6036182167
  0
VERTEX
  8
0
 62
7
  6
CONTINUOUS
 10
62.8333367042
 20
172.6596050802
  0
VERTEX
  8
0
 62
7
  6
CONTINUOUS
 10
63.141271952
 20
171.7399506588
  0
VERTEX
  8
0
 62
7
  6
CONTINUOUS
 10
63.5332715852
 20
170.8528629881
  0
VERTEX
  8
0
 62
7
  6
CONTINUOUS
 10
64.0049495293
 20
170.0054504436
  0
VERTEX
  8
0
 62
7
  6
CONTINUOUS
 10
64.5532763846
 20
169.2054969454
  0
VERTEX
  8
0
 62
7
  6
CONTINUOUS
 10
65.1726345985
 20
168.4591838955
  0
VERTEX
  8
0
 62
7
  6
CONTINUOUS
 10
65.8586160624
 20
167.7736060267
  0
VERTEX
  8
0
 62
7
  6
CONTINUOUS
 10
66.6045630448
 20
167.1538072674
  0
VERTEX
  8
0
 62
7
  6
CONTINUOUS
 10
67.4048388414
 20
166.6059515601
  0
VERTEX
  8
0
 62
7
  6
CONTINUOUS
 10
68.2519722626
 20
166.1337735946
  0
VERTEX
  8
0
 62
7
  6
CONTINUOUS
 10
69.1392899593
 20
165.7422966179
  0
VERTEX
  8
0
 62
7
  6
CONTINUOUS
 10
70.0587617067
 20
165.4338189005
  0
VERTEX
  8
0
 62
7
  6
CONTINUOUS
 10
71.0029047637
 20
165.2120519332
  0
VERTEX
  8
0
 62
7
  6
CONTINUOUS
 10
71.9634033297
 20
165.0777793027
  0
VERTEX
  8
0
 62
7
  6
CONTINUOUS
 10
72.9322200875
 20
165.0329881538
  0
SEQEND
  0
LINE
  8
0
 62
7
  6
CONTINUOUS
 10
93.9097968864
 20
147.5329881538
 11
109.9097968864
 21
147.5329881538
  0
POLYLINE
  8
0
 62
7
  6
CONTINUOUS
 66
1
 70
0
  0
VERTEX
  8
0
 62
7
  6
CONTINUOUS
 10
82.4307614968
 20
175.5329881538
  0
VERTEX
  8
0
 62
7
  6
CONTINUOUS
 10
82.3842497236
 20
176.4685701222
  0
VERTEX
  8
0
 62
7
  6
CONTINUOUS
 10
82.2482218522
 20
177.386346213
  0
VERTEX
  8
0
 62
7
  6
CONTINUOUS
 10
82.0213794381
 20
178.2905968279
  0
VERTEX
  8
0
 62
7
  6
CONTINUOUS
 10
81.7076178144
 20
179.1684807613
  0
VERTEX
  8
0
 62
7
  6
CONTINUOUS
 10
81.3087237551
 20
180.0111016482
  0
VERTEX
  8
0
 62
7
  6
CONTINUOUS
 10
80.8297244936
 20
180.8109053675
  0
VERTEX
  8
0
 62
7
  6
CONTINUOUS
 10
80.2741080641
 20
181.5595150782
  0
VERTEX
  8
0
 62
7
  6
CONTINUOUS
 10
79.6482788376
 20
182.2505025751
  0
VERTEX
  8
0
 62
7
  6
CONTINUOUS
 10
78.9572920658
 20
182.8763324582
  0
VERTEX
  8
0
 62
7
  6
CONTINUOUS
 10
78.2086831405
 20
183.4319494707
  0
VERTEX
  8
0
 62
7
  6
CONTINUOUS
 10
77.4088802604
 20
183.9109492348
  0
VERTEX
  8
0
 62
7
  6
CONTINUOUS
 10
76.5662602576
 20
184.3098437127
  0
VERTEX
  8
0
 62
7
  6
CONTINUOUS
 10
75.6883772454
 20
184.6236056655
  0
VERTEX
  8
0
 62
7
  6
CONTINUOUS
 10
74.7841275792
 20
184.8504483176
  0
VERTEX
  8
0
 62
7
  6
CONTINUOUS
 10
73.8619009867
 20
184.9869147633
  0
VERTEX
  8
0
 62
7
  6
CONTINUOUS
 10
72.9307714647
 20
185.0329881538
  0
SEQEND
  0
POLYLINE
  8
0
 62
7
  6
CONTINUOUS
 66
1
 70
0
  0
VERTEX
  8
0
 62
7
  6
CONTINUOUS
 10
82.3967692357
 20
175.5329881538
  0
VERTEX
  8
0
 62
7
  6
CONTINUOUS
 10
82.3739247441
 20
174.8566082537
  0
VERTEX
  8
0
 62
7
  6
CONTINUOUS
 10
82.2985830233
 20
174.1696376222
  0
VERTEX
  8
0
 62
7
  6
CONTINUOUS
 10
82.1698981191
 20
173.4724931056
  0
VERTEX
  8
0
 62
7
  6
CONTINUOUS
 10
81.9904078947
 20
172.7821564247
  0
VERTEX
  8
0
 62
7
  6
CONTINUOUS
 10
81.7606855172
 20
172.1137318861
  0
VERTEX
  8
0
 62
7
  6
CONTINUOUS
 10
81.4857791212
 20
171.4705992264
  0
VERTEX
  8
0
 62
7
  6
CONTINUOUS
 10
81.1680417544
 20
170.8575474203
  0
VERTEX
  8
0
 62
7
  6
CONTINUOUS
 10
80.816131845
 20
170.2820403384
  0
VERTEX
  8
0
 62
7
  6
CONTINUOUS
 10
80.4354164805
 20
169.7485897879
  0
VERTEX
  8
0
 62
7
  6
CONTINUOUS
 10
80.0381227308
 20
169.263727349
  0
VERTEX
  8
0
 62
7
  6
CONTINUOUS
 10
79.6352024136
 20
168.8319973372
  0
VERTEX
  8
0
 62
7
  6
CONTINUOUS
 10
79.2358483733
 20
168.4527863077
  0
VERTEX
  8
0
 62
7
  6
CONTINUOUS
 10
78.8531478195
 20
168.1273717105
  0
VERTEX
  8
0
 62
7
  6
CONTINUOUS
 10
78.4863694749
 20
167.846883339
  0
VERTEX
  8
0
 62
7
  6
CONTINUOUS
 10
78.1390993096
 20
167.6057134587
  0
VERTEX
  8
0
 62
7
  6
CONTINUOUS
 10
77.8114727909
 20
167.3985612167
  0
VERTEX
  8
0
 62
7
  6
CONTINUOUS
 10
77.5054521369
 20
167.221423857
  0
VERTEX
  8
0
 62
7
  6
CONTINUOUS
 10
77.219143065
 20
167.0688662154
  0
VERTEX
  8
0
 62
7
  6
CONTINUOUS
 10
76.9489361542
 20
166.9362895148
  0
VERTEX
  8
0
 62
7
  6
CONTINUOUS
 10
76.7019390384
 20
166.8241000737
  0
VERTEX
  8
0
 62
7
  6
CONTINUOUS
 10
76.4824098298
 20
166.7313970981
  0
VERTEX
  8
0
 62
7
  6
CONTINUOUS
 10
76.2952876717
 20
166.6575255301
  0
VERTEX
  8
0
 62
7
  6
CONTINUOUS
 10
76.1462830691
 20
166.6016970939
  0
VERTEX
  8
0
 62
7
  6
CONTINUOUS
 10
76.037340049
 20
166.562935427
  0
VERTEX
  8
0
 62
7
  6
CONTINUOUS
 10
75.9727870813
 20
166.5403251824
  0
VERTEX
  8
0
 62
7
  6
CONTINUOUS
 10
75.9511813428
 20
166.5329881538
  0
SEQEND
  0
POLYLINE
  8
0
 62
7
  6
CONTINUOUS
 66
1
 70
0
  0
VERTEX
  8
0
 62
7
  6
CONTINUOUS
 10
83.4322090703
 20
175.5329881538
  0
VERTEX
  8
0
 62
7
  6
CONTINUOUS
 10
83.3867524769
 20
176.5058859197
  0
VERTEX
  8
0
 62
7
  6
CONTINUOUS
 10
83.2534268046
 20
177.4623580909
  0
VERTEX
  8
0
 62
7
  6
CONTINUOUS
 10
83.0311034708
 20
178.4063712274
  0
VERTEX
  8
0
 62
7
  6
CONTINUOUS
 10
82.723168223
 20
179.3260256488
  0
VERTEX
  8
0
 62
7
  6
CONTINUOUS
 10
82.3311685898
 20
180.2131133195
  0
VERTEX
  8
0
 62
7
  6
CONTINUOUS
 10
81.8594906457
 20
181.060525864
  0
VERTEX
  8
0
 62
7
  6
CONTINUOUS
 10
81.3111637904
 20
181.8604793623
  0
VERTEX
  8
0
 62
7
  6
CONTINUOUS
 10
80.6918055765
 20
182.6067924121
  0
VERTEX
  8
0
 62
7
  6
CONTINUOUS
 10
80.0058241126
 20
183.2923702809
  0
VERTEX
  8
0
 62
7
  6
CONTINUOUS
 10
79.2598771301
 20
183.9121690403
  0
VERTEX
  8
0
 62
7
  6
CONTINUOUS
 10
78.4596013336
 20
184.4600247475
  0
VERTEX
  8
0
 62
7
  6
CONTINUOUS
 10
77.6124679124
 20
184.932202713
  0
VERTEX
  8
0
 62
7
  6
CONTINUOUS
 10
76.7251502156
 20
185.3236796898
  0
VERTEX
  8
0
 62
7
  6
CONTINUOUS
 10
75.8056784683
 20
185.6321574071
  0
VERTEX
  8
0
 62
7
  6
CONTINUOUS
 10
74.8615354113
 20
185.8539243744
  0
VERTEX
  8
0
 62
7
  6
CONTINUOUS
 10
73.9010368453
 20
185.9881970049
  0
VERTEX
  8
0
 62
7
  6
CONTINUOUS
 10
72.9322200875
 20
186.0329881538
  0
SEQEND
  0
LINE
  8
AXES
 62
7
  6
CONTINUOUS
 10
140.2135659335
 20
160.5329881538
 11
117.4097968864
 21
160.5329881538
  0
LINE
  8
0
 62
7
  6
CONTINUOUS
 10
117.4097968864
 20
160.5329881538
 11
111.9097968864
 21
160.5329881538
  0
LINE
  8
0
 62
7
  6
CONTINUOUS
 10
91.9097968864
 20
160.5329881538
 11
87.4097968864
 21
160.5329881538
  0
LINE
  8
AXES
 62
7
  6
CONTINUOUS
 10
63.6060278394
 20
160.5329881538
 11
87.4097968864
 21
160.5329881538
  0
LINE
  8
0
 62
7
  6
CONTINUOUS
 10
87.4097968864
 20
190.5329881538
 11
87.4097968864
 21
160.5329881538
  0
LINE
  8
0
 62
7
  6
CONTINUOUS
 10
91.9097968864
 20
188.5329881538
 11
91.9097968864
 21
149.5329881538
  0
POLYLINE
  8
0
 62
7
  6
CONTINUOUS
 66
1
 70
0
  0
VERTEX
  8
0
 62
7
  6
CONTINUOUS
 10
72.9307714647
 20
166.0329881538
  0
VERTEX
  8
0
 62
7
  6
CONTINUOUS
 10
73.8619009867
 20
166.0790615443
  0
VERTEX
  8
0
 62
7
  6
CONTINUOUS
 10
74.7841275792
 20
166.21552799
  0
VERTEX
  8
0
 62
7
  6
CONTINUOUS
 10
75.6883772454
 20
166.4423706421
  0
VERTEX
  8
0
 62
7
  6
CONTINUOUS
 10
76.5662602576
 20
166.756132595
  0
VERTEX
  8
0
 62
7
  6
CONTINUOUS
 10
77.4088802604
 20
167.1550270728
  0
VERTEX
  8
0
 62
7
  6
CONTINUOUS
 10
78.2086831405
 20
167.6340268369
  0
VERTEX
  8
0
 62
7
  6
CONTINUOUS
 10
78.9572920658
 20
168.1896438494
  0
VERTEX
  8
0
 62
7
  6
CONTINUOUS
 10
79.6482788376
 20
168.8154737325
  0
VERTEX
  8
0
 62
7
  6
CONTINUOUS
 10
80.2741080641
 20
169.5064612294
  0
VERTEX
  8
0
 62
7
  6
CONTINUOUS
 10
80.8297244936
 20
170.2550709401
  0
VERTEX
  8
0
 62
7
  6
CONTINUOUS
 10
81.3087237551
 20
171.0548746594
  0
VERTEX
  8
0
 62
7
  6
CONTINUOUS
 10
81.7076178144
 20
171.8974955463
  0
VERTEX
  8
0
 62
7
  6
CONTINUOUS
 10
82.0213794381
 20
172.7753794797
  0
VERTEX
  8
0
 62
7
  6
CONTINUOUS
 10
82.2482218522
 20
173.6796300947
  0
VERTEX
  8
0
 62
7
  6
CONTINUOUS
 10
82.3842497236
 20
174.5974061854
  0
VERTEX
  8
0
 62
7
  6
CONTINUOUS
 10
82.4307614968
 20
175.5329881538
  0
SEQEND
  0
POLYLINE
  8
0
 62
7
  6
CONTINUOUS
 66
1
 70
0
  0
VERTEX
  8
0
 62
7
  6
CONTINUOUS
 10
72.9322200875
 20
165.0329881538
  0
VERTEX
  8
0
 62
7
  6
CONTINUOUS
 10
73.9010368453
 20
165.0777793027
  0
VERTEX
  8
0
 62
7
  6
CONTINUOUS
 10
74.8615354113
 20
165.2120519332
  0
VERTEX
  8
0
 62
7
  6
CONTINUOUS
 10
75.8056784683
 20
165.4338189005
  0
VERTEX
  8
0
 62
7
  6
CONTINUOUS
 10
76.7251502156
 20
165.7422966179
  0
VERTEX
  8
0
 62
7
  6
CONTINUOUS
 10
77.6124679124
 20
166.1337735946
  0
VERTEX
  8
0
 62
7
  6
CONTINUOUS
 10
78.4596013336
 20
166.6059515601
  0
VERTEX
  8
0
 62
7
  6
CONTINUOUS
 10
79.2598771301
 20
167.1538072674
  0
VERTEX
  8
0
 62
7
  6
CONTINUOUS
 10
80.0058241126
 20
167.7736060267
  0
VERTEX
  8
0
 62
7
  6
CONTINUOUS
 10
80.6918055765
 20
168.4591838955
  0
VERTEX
  8
0
 62
7
  6
CONTINUOUS
 10
81.3111637904
 20
169.2054969454
  0
VERTEX
  8
0
 62
7
  6
CONTINUOUS
 10
81.8594906457
 20
170.0054504436
  0
VERTEX
  8
0
 62
7
  6
CONTINUOUS
 10
82.3311685898
 20
170.8528629881
  0
VERTEX
  8
0
 62
7
  6
CONTINUOUS
 10
82.723168223
 20
171.7399506588
  0
VERTEX
  8
0
 62
7
  6
CONTINUOUS
 10
83.0311034708
 20
172.6596050802
  0
VERTEX
  8
0
 62
7
  6
CONTINUOUS
 10
83.2534268046
 20
173.6036182167
  0
VERTEX
  8
0
 62
7
  6
CONTINUOUS
 10
83.3867524769
 20
174.5600903879
  0
VERTEX
  8
0
 62
7
  6
CONTINUOUS
 10
83.4322090703
 20
175.5329881538
  0
SEQEND
  0
POLYLINE
  8
AXES
 62
7
  6
CONTINUOUS
 66
1
 70
0
  0
VERTEX
  8
AXES
 62
7
  6
CONTINUOUS
 10
129.9097968864
 20
166.5329881538
  0
VERTEX
  8
AXES
 62
7
  6
CONTINUOUS
 10
128.8794052077
 20
166.5952921261
  0
VERTEX
  8
AXES
 62
7
  6
CONTINUOUS
 10
127.888811663
 20
166.7628331537
  0
VERTEX
  8
AXES
 62
7
  6
CONTINUOUS
 10
126.930319893
 20
167.0421911984
  0
VERTEX
  8
AXES
 62
7
  6
CONTINUOUS
 10
126.0270189757
 20
167.413626375
  0
VERTEX
  8
AXES
 62
7
  6
CONTINUOUS
 10
125.1997204914
 20
167.8644448517
  0
VERTEX
  8
AXES
 62
7
  6
CONTINUOUS
 10
124.4475605735
 20
168.3800884298
  0
VERTEX
  8
AXES
 62
7
  6
CONTINUOUS
 10
123.7782128248
 20
168.9446634837
  0
VERTEX
  8
AXES
 62
7
  6
CONTINUOUS
 10
123.1868764163
 20
169.549482463
  0
VERTEX
  8
AXES
 62
7
  6
CONTINUOUS
 10
122.6723867815
 20
170.1832081174
  0
VERTEX
  8
AXES
 62
7
  6
CONTINUOUS
 10
122.2315087358
 20
170.8378959208
  0
VERTEX
  8
AXES
 62
7
  6
CONTINUOUS
 10
121.8622957329
 20
171.5028014091
  0
VERTEX
  8
AXES
 62
7
  6
CONTINUOUS
 10
121.5597172925
 20
172.174987145
  0
VERTEX
  8
AXES
 62
7
  6
CONTINUOUS
 10
121.3192642481
 20
172.8478673241
  0
VERTEX
  8
AXES
 62
7
  6
CONTINUOUS
 10
121.1374261123
 20
173.521642584
  0
VERTEX
  8
AXES
 62
7
  6
CONTINUOUS
 10
121.0095574964
 20
174.194021957
  0
VERTEX
  8
AXES
 62
7
  6
CONTINUOUS
 10
120.9345539372
 20
174.8658944555
  0
VERTEX
  8
AXES
 62
7
  6
CONTINUOUS
 10
120.9094166849
 20
175.5371453105
  0
VERTEX
  8
AXES
 62
7
  6
CONTINUOUS
 10
120.9351832102
 20
176.2084948989
  0
VERTEX
  8
AXES
 62
7
  6
CONTINUOUS
 10
121.0108884727
 20
176.8807117507
  0
VERTEX
  8
AXES
 62
7
  6
CONTINUOUS
 10
121.1395412558
 20
177.5535366371
  0
VERTEX
  8
AXES
 62
7
  6
CONTINUOUS
 10
121.3223020469
 20
178.227768794
  0
VERTEX
  8
AXES
 62
7
  6
CONTINUOUS
 10
121.5637506933
 20
178.9010013577
  0
VERTEX
  8
AXES
 62
7
  6
CONTINUOUS
 10
121.867472549
 20
179.5733967521
  0
VERTEX
  8
AXES
 62
7
  6
CONTINUOUS
 10
122.2376115811
 20
180.2380463512
  0
VERTEX
  8
AXES
 62
7
  6
CONTINUOUS
 10
122.6787888458
 20
180.8914760583
  0
VERTEX
  8
AXES
 62
7
  6
CONTINUOUS
 10
123.1931584291
 20
181.5235447084
  0
VERTEX
  8
AXES
 62
7
  6
CONTINUOUS
 10
123.7840276208
 20
182.1267301482
  0
VERTEX
  8
AXES
 62
7
  6
CONTINUOUS
 10
124.4525578662
 20
182.6897012455
  0
VERTEX
  8
AXES
 62
7
  6
CONTINUOUS
 10
125.2034573968
 20
183.2038702967
  0
VERTEX
  8
AXES
 62
7
  6
CONTINUOUS
 10
126.0293931452
 20
183.6534848631
  0
VERTEX
  8
AXES
 62
7
  6
CONTINUOUS
 10
126.9314952803
 20
184.0242202534
  0
VERTEX
  8
AXES
 62
7
  6
CONTINUOUS
 10
127.8890823255
 20
184.3032055207
  0
VERTEX
  8
AXES
 62
7
  6
CONTINUOUS
 10
128.8793114334
 20
184.4705890904
  0
VERTEX
  8
AXES
 62
7
  6
CONTINUOUS
 10
129.9097968864
 20
184.5329881538
  0
SEQEND
  0
LINE
  8
AXES
 62
7
  6
CONTINUOUS
 10
100.9097968864
 20
188.5329881538
 11
100.9097968864
 21
186.5329881538
  0
LINE
  8
0
 62
7
  6
CONTINUOUS
 10
101.9282493638
 20
181.5329597792
 11
101.922098538
 21
179.5329692374
  0
LINE
  8
0
 62
7
  6
CONTINUOUS
 10
102.6165010742
 20
179.4700643775
 11
102.969853168
 21
181.4386024893
  0
POLYLINE
  8
0
 62
7
  6
CONTINUOUS
 66
1
 70
0
  0
VERTEX
  8
0
 62
7
  6
CONTINUOUS
 10
75.9511813428
 20
184.5329881538
  0
VERTEX
  8
0
 62
7
  6
CONTINUOUS
 10
75.9728022923
 20
184.5256774885
  0
VERTEX
  8
0
 62
7
  6
CONTINUOUS
 10
76.0368801892
 20
184.5032022567
  0
VERTEX
  8
0
 62
7
  6
CONTINUOUS
 10
76.1447401773
 20
184.464806287
  0
VERTEX
  8
0
 62
7
  6
CONTINUOUS
 10
76.2924068251
 20
184.4095534539
  0
VERTEX
  8
0
 62
7
  6
CONTINUOUS
 10
76.4780125553
 20
184.33635867
  0
VERTEX
  8
0
 62
7
  6
CONTINUOUS
 10
76.6965589502
 20
184.2442246443
  0
VERTEX
  8
0
 62
7
  6
CONTINUOUS
 10
76.9441490128
 20
184.1319779062
  0
VERTEX
  8
0
 62
7
  6
CONTINUOUS
 10
77.215610904
 20
183.9989130244
  0
VERTEX
  8
0
 62
7
  6
CONTINUOUS
 10
77.5035318184
 20
183.8456207238
  0
VERTEX
  8
0
 62
7
  6
CONTINUOUS
 10
77.8107376573
 20
183.6678593486
  0
VERTEX
  8
0
 62
7
  6
CONTINUOUS
 10
78.137847358
 20
183.4610777387
  0
VERTEX
  8
0
 62
7
  6
CONTINUOUS
 10
78.4840690073
 20
183.2207664395
  0
VERTEX
  8
0
 62
7
  6
CONTINUOUS
 10
78.8501355258
 20
182.9410231357
  0
VERTEX
  8
0
 62
7
  6
CONTINUOUS
 10
79.2320913493
 20
182.6165548677
  0
VERTEX
  8
0
 62
7
  6
CONTINUOUS
 10
79.6304328477
 20
182.2387981928
  0
VERTEX
  8
0
 62
7
  6
CONTINUOUS
 10
80.0325371394
 20
181.808612728
  0
VERTEX
  8
0
 62
7
  6
CONTINUOUS
 10
80.4296418197
 20
181.3249456365
  0
VERTEX
  8
0
 62
7
  6
CONTINUOUS
 10
80.8106618281
 20
180.7921867895
  0
VERTEX
  8
0
 62
7
  6
CONTINUOUS
 10
81.1635258442
 20
180.216369393
  0
VERTEX
  8
0
 62
7
  6
CONTINUOUS
 10
81.4824302437
 20
179.6024597918
  0
VERTEX
  8
0
 62
7
  6
CONTINUOUS
 10
81.7582999362
 20
178.9584432805
  0
VERTEX
  8
0
 62
7
  6
CONTINUOUS
 10
81.988878001
 20
178.2888797251
  0
VERTEX
  8
0
 62
7
  6
CONTINUOUS
 10
82.169095193
 20
177.5969409916
  0
VERTEX
  8
0
 62
7
  6
CONTINUOUS
 10
82.2983133954
 20
176.8981995913
  0
VERTEX
  8
0
 62
7
  6
CONTINUOUS
 10
82.3739137599
 20
176.2101136015
  0
VERTEX
  8
0
 62
7
  6
CONTINUOUS
 10
82.3967692357
 20
175.5329881538
  0
SEQEND
  0
LINE
  8
AXES
 62
7
  6
CONTINUOUS
 10
102.9097968864
 20
186.5329881538
 11
102.9097968864
 21
188.5329881538
  0
LINE
  8
0
 62
7
  6
CONTINUOUS
 10
111.9097968864
 20
149.5329881538
 11
111.9097968864
 21
188.5329881538
  0
POLYLINE
  8
0
 62
7
  6
CONTINUOUS
 66
1
 70
0
  0
VERTEX
  8
0
 62
7
  6
CONTINUOUS
 10
72.9307714647
 20
185.0329881538
  0
VERTEX
  8
0
 62
7
  6
CONTINUOUS
 10
71.9996419427
 20
184.9869147633
  0
VERTEX
  8
0
 62
7
  6
CONTINUOUS
 10
71.0774153502
 20
184.8504483176
  0
VERTEX
  8
0
 62
7
  6
CONTINUOUS
 10
70.173165684
 20
184.6236056655
  0
VERTEX
  8
0
 62
7
  6
CONTINUOUS
 10
69.2952826718
 20
184.3098437127
  0
VERTEX
  8
0
 62
7
  6
CONTINUOUS
 10
68.452662669
 20
183.9109492348
  0
VERTEX
  8
0
 62
7
  6
CONTINUOUS
 10
67.6528597889
 20
183.4319494707
  0
VERTEX
  8
0
 62
7
  6
CONTINUOUS
 10
66.9042508637
 20
182.8763324582
  0
VERTEX
  8
0
 62
7
  6
CONTINUOUS
 10
66.2132640918
 20
182.2505025751
  0
VERTEX
  8
0
 62
7
  6
CONTINUOUS
 10
65.5874348653
 20
181.5595150782
  0
VERTEX
  8
0
 62
7
  6
CONTINUOUS
 10
65.0318184359
 20
180.8109053675
  0
VERTEX
  8
0
 62
7
  6
CONTINUOUS
 10
64.5528191743
 20
180.0111016482
  0
VERTEX
  8
0
 62
7
  6
CONTINUOUS
 10
64.153925115
 20
179.1684807613
  0
VERTEX
  8
0
 62
7
  6
CONTINUOUS
 10
63.8401634914
 20
178.2905968279
  0
VERTEX
  8
0
 62
7
  6
CONTINUOUS
 10
63.6133210773
 20
177.386346213
  0
VERTEX
  8
0
 62
7
  6
CONTINUOUS
 10
63.4772932058
 20
176.4685701222
  0
VERTEX
  8
0
 62
7
  6
CONTINUOUS
 10
63.4307814326
 20
175.5329881538
  0
SEQEND
  0
POLYLINE
  8
0
 62
7
  6
CONTINUOUS
 66
1
 70
0
  0
VERTEX
  8
0
 62
7
  6
CONTINUOUS
 10
72.9322200875
 20
186.0329881538
  0
VERTEX
  8
0
 62
7
  6
CONTINUOUS
 10
71.9634033297
 20
185.9881970049
  0
VERTEX
  8
0
 62
7
  6
CONTINUOUS
 10
71.0029047637
 20
185.8539243744
  0
VERTEX
  8
0
 62
7
  6
CONTINUOUS
 10
70.0587617067
 20
185.6321574071
  0
VERTEX
  8
0
 62
7
  6
CONTINUOUS
 10
69.1392899593
 20
185.3236796898
  0
VERTEX
  8
0
 62
7
  6
CONTINUOUS
 10
68.2519722626
 20
184.932202713
  0
VERTEX
  8
0
 62
7
  6
CONTINUOUS
 10
67.4048388414
 20
184.4600247475
  0
VERTEX
  8
0
 62
7
  6
CONTINUOUS
 10
66.6045630448
 20
183.9121690403
  0
VERTEX
  8
0
 62
7
  6
CONTINUOUS
 10
65.8586160624
 20
183.2923702809
  0
VERTEX
  8
0
 62
7
  6
CONTINUOUS
 10
65.1726345985
 20
182.6067924121
  0
VERTEX
  8
0
 62
7
  6
CONTINUOUS
 10
64.5532763846
 20
181.8604793623
  0
VERTEX
  8
0
 62
7
  6
CONTINUOUS
 10
64.0049495293
 20
181.060525864
  0
VERTEX
  8
0
 62
7
  6
CONTINUOUS
 10
63.5332715852
 20
180.2131133195
  0
VERTEX
  8
0
 62
7
  6
CONTINUOUS
 10
63.141271952
 20
179.3260256488
  0
VERTEX
  8
0
 62
7
  6
CONTINUOUS
 10
62.8333367042
 20
178.4063712274
  0
VERTEX
  8
0
 62
7
  6
CONTINUOUS
 10
62.6110133704
 20
177.4623580909
  0
VERTEX
  8
0
 62
7
  6
CONTINUOUS
 10
62.4776876981
 20
176.5058859197
  0
VERTEX
  8
0
 62
7
  6
CONTINUOUS
 10
62.4322311047
 20
175.5329881538
  0
SEQEND
  0
POLYLINE
  8
AXES
 62
7
  6
CONTINUOUS
 66
1
 70
0
  0
VERTEX
  8
AXES
 62
7
  6
CONTINUOUS
 10
129.9097968864
 20
184.5329881538
  0
VERTEX
  8
AXES
 62
7
  6
CONTINUOUS
 10
130.9401885652
 20
184.4706841816
  0
VERTEX
  8
AXES
 62
7
  6
CONTINUOUS
 10
131.9307821099
 20
184.303143154
  0
VERTEX
  8
AXES
 62
7
  6
CONTINUOUS
 10
132.8892738798
 20
184.0237851093
  0
VERTEX
  8
AXES
 62
7
  6
CONTINUOUS
 10
133.7925747972
 20
183.6523499327
  0
VERTEX
  8
AXES
 62
7
  6
CONTINUOUS
 10
134.6198732814
 20
183.201531456
  0
VERTEX
  8
AXES
 62
7
  6
CONTINUOUS
 10
135.3720331994
 20
182.6858878778
  0
VERTEX
  8
AXES
 62
7
  6
CONTINUOUS
 10
136.0413809481
 20
182.1213128239
  0
VERTEX
  8
AXES
 62
7
  6
CONTINUOUS
 10
136.6327173566
 20
181.5164938446
  0
VERTEX
  8
AXES
 62
7
  6
CONTINUOUS
 10
137.1472069914
 20
180.8827681902
  0
VERTEX
  8
AXES
 62
7
  6
CONTINUOUS
 10
137.588085037
 20
180.2280803868
  0
VERTEX
  8
AXES
 62
7
  6
CONTINUOUS
 10
137.95729804
 20
179.5631748985
  0
VERTEX
  8
AXES
 62
7
  6
CONTINUOUS
 10
138.2598764804
 20
178.8909891626
  0
VERTEX
  8
AXES
 62
7
  6
CONTINUOUS
 10
138.5003295247
 20
178.2181089835
  0
VERTEX
  8
AXES
 62
7
  6
CONTINUOUS
 10
138.6821676606
 20
177.5443337236
  0
VERTEX
  8
AXES
 62
7
  6
CONTINUOUS
 10
138.8100362765
 20
176.8719543506
  0
VERTEX
  8
AXES
 62
7
  6
CONTINUOUS
 10
138.8850398357
 20
176.2000818521
  0
VERTEX
  8
AXES
 62
7
  6
CONTINUOUS
 10
138.910177088
 20
175.5288309971
  0
VERTEX
  8
AXES
 62
7
  6
CONTINUOUS
 10
138.8844105627
 20
174.8574814087
  0
VERTEX
  8
AXES
 62
7
  6
CONTINUOUS
 10
138.8087053001
 20
174.1852645569
  0
VERTEX
  8
AXES
 62
7
  6
CONTINUOUS
 10
138.6800525171
 20
173.5124396705
  0
VERTEX
  8
AXES
 62
7
  6
CONTINUOUS
 10
138.497291726
 20
172.8382075137
  0
VERTEX
  8
AXES
 62
7
  6
CONTINUOUS
 10
138.2558430796
 20
172.1649749499
  0
VERTEX
  8
AXES
 62
7
  6
CONTINUOUS
 10
137.9521212239
 20
171.4925795555
  0
VERTEX
  8
AXES
 62
7
  6
CONTINUOUS
 10
137.5819821918
 20
170.8279299564
  0
VERTEX
  8
AXES
 62
7
  6
CONTINUOUS
 10
137.1408049271
 20
170.1745002493
  0
VERTEX
  8
AXES
 62
7
  6
CONTINUOUS
 10
136.6264353437
 20
169.5424315992
  0
VERTEX
  8
AXES
 62
7
  6
CONTINUOUS
 10
136.0355661521
 20
168.9392461594
  0
VERTEX
  8
AXES
 62
7
  6
CONTINUOUS
 10
135.3670359066
 20
168.3762750621
  0
VERTEX
  8
AXES
 62
7
  6
CONTINUOUS
 10
134.6161363761
 20
167.8621060109
  0
VERTEX
  8
AXES
 62
7
  6
CONTINUOUS
 10
133.7902006276
 20
167.4124914445
  0
VERTEX
  8
AXES
 62
7
  6
CONTINUOUS
 10
132.8880984926
 20
167.0417560542
  0
VERTEX
  8
AXES
 62
7
  6
CONTINUOUS
 10
131.9305114474
 20
166.7627707869
  0
VERTEX
  8
AXES
 62
7
  6
CONTINUOUS
 10
130.9402823395
 20
166.5953872173
  0
VERTEX
  8
AXES
 62
7
  6
CONTINUOUS
 10
129.9097968864
 20
166.5329881538
  0
SEQEND
  0
LINE
  8
AXES
 62
7
  6
CONTINUOUS
 10
117.4097968864
 20
190.5329881538
 11
117.4097968864
 21
160.5329881538
  0
LINE
  8
AXES
 62
7
  6
CONTINUOUS
 10
140.2135659335
 20
190.5329881538
 11
117.4097968864
 21
190.5329881538
  0
LINE
  8
AXES
 62
7
  6
CONTINUOUS
 10
63.6060278394
 20
190.5329881538
 11
87.4097968864
 21
190.5329881538
  0
LINE
  8
0
 62
7
  6
CONTINUOUS
 10
87.4097968864
 20
190.5329881538
 11
117.4097968864
 21
190.5329881538
  0
CIRCLE
  8
0
 62
7
  6
CONTINUOUS
 10
101.9097968864
 20
156.0329881538
 40
5.5
  0
CIRCLE
  8
AXES
 62
7
  6
CONTINUOUS
 10
101.9097968864
 20
156.0329881538
 40
3.0
  0
ARC
  8
0
 62
7
  6
CONTINUOUS
 10
93.9097968864
 20
149.5329881538
 40
2.0
 50
180.0
 51
270.0
  0
ARC
  8
0
 62
7
  6
CONTINUOUS
 10
109.9097968864
 20
149.5329881538
 40
2.0
 50
270.0
 51
360.0
  0
CIRCLE
  8
AXES
 62
7
  6
CONTINUOUS
 10
109.4097968864
 20
163.5329881538
 40
1.1
  0
CIRCLE
  8
AXES
 62
7
  6
CONTINUOUS
 10
94.4097968864
 20
163.5329881538
 40
1.1
  0
ARC
  8
AXES
 62
7
  6
CONTINUOUS
 10
94.4097968864
 20
163.5329881538
 40
1.0
 50
255.0
 51
195.0
  0
ARC
  8
AXES
 62
7
  6
CONTINUOUS
 10
109.4097968864
 20
163.5329881538
 40
1.0
 50
255.0
 51
195.0
  0
CIRCLE
  8
AXES
 62
7
  6
CONTINUOUS
 10
101.9097968864
 20
163.5329881538
 40
1.0
  0
CIRCLE
  8
AXES
 62
7
  6
CONTINUOUS
 10
94.4097968864
 20
163.5329881538
 40
0.8
  0
CIRCLE
  8
AXES
 62
7
  6
CONTINUOUS
 10
109.4097968864
 20
163.5329881538
 40
0.8
  0
ARC
  8
AXES
 62
7
  6
CONTINUOUS
 10
101.9097968864
 20
175.5329881538
 40
41.1361
 50
338.6143724365
 51
21.3856275635
  0
ARC
  8
AXES
 62
7
  6
CONTINUOUS
 10
101.9097968864
 20
175.5329881538
 40
41.1361
 50
158.6143724365
 51
201.3856275635
  0
ARC
  8
AXES
 62
7
  6
CONTINUOUS
 10
101.9097968864
 20
175.5329881538
 40
6.0
 50
180.0
 51
360.0
  0
ARC
  8
0
 62
7
  6
CONTINUOUS
 10
101.9097968864
 20
175.5329881538
 40
6.0
 50
0.0
 51
180.0
  0
ARC
  8
AXES
 62
7
  6
CONTINUOUS
 10
101.9097968864
 20
175.5329881538
 40
4.0
 50
180.0
 51
360.0
  0
ARC
  8
0
 62
7
  6
CONTINUOUS
 10
101.9097968864
 20
175.5329881538
 40
4.0
 50
0.0
 51
180.0
  0
ARC
  8
AXES
 62
7
  6
CONTINUOUS
 10
99.9097968864
 20
175.5329881538
 40
4.0
 50
313.3901507986
 51
46.6098492014
  0
CIRCLE
  8
0
 62
7
  6
CONTINUOUS
 10
101.9097968864
 20
175.5329881538
 40
3.0
  0
ARC
  8
0
 62
7
  6
CONTINUOUS
 10
109.9097968864
 20
188.5329881538
 40
2.0
 50
0.0
 51
90.0
  0
ARC
  8
0
 62
7
  6
CONTINUOUS
 10
93.9097968864
 20
188.5329881538
 40
2.0
 50
90.0
 51
180.0
  0
CIRCLE
  8
AXES
 62
7
  6
CONTINUOUS
 10
109.4097968864
 20
187.5329881538
 40
1.1
  0
CIRCLE
  8
AXES
 62
7
  6
CONTINUOUS
 10
94.4097968864
 20
187.5329881538
 40
1.1
  0
ARC
  8
AXES
 62
7
  6
CONTINUOUS
 10
94.4097968864
 20
187.5329881538
 40
1.0
 50
255.0
 51
195.0
  0
ARC
  8
AXES
 62
7
  6
CONTINUOUS
 10
109.4097968864
 20
187.5329881538
 40
1.0
 50
255.0
 51
195.0
  0
ARC
  8
AXES
 62
7
  6
CONTINUOUS
 10
101.9097968864
 20
188.5329881538
 40
1.0
 50
0.0
 51
180.0
  0
ARC
  8
AXES
 62
7
  6
CONTINUOUS
 10
101.9097968864
 20
186.5329881538
 40
1.0
 50
180.0
 51
360.0
  0
CIRCLE
  8
AXES
 62
7
  6
CONTINUOUS
 10
94.4097968864
 20
187.5329881538
 40
0.8
  0
CIRCLE
  8
AXES
 62
7
  6
CONTINUOUS
 10
109.4097968864
 20
187.5329881538
 40
0.8
  0
CIRCLE
  8
AXES
 62
7
  6
CONTINUOUS
 10
129.9097968864
 20
175.5329881538
 40
8.5
  0
ENDSEC
  0
EOF
