999
DXF file: beta_arm_footprint_side.dxf
999
Pro/ENGINEER 2023154 by Parametric Technology Corporation
  0
SECTION
  2
HEADER
  9
$EXTMAX
 10
210.0
 20
297.0
 30
0.0
  9
$EXTMIN
 10
0.0
 20
0.0
 30
0.0
  9
$LIMMIN
 10
0.0
 20
0.0
  9
$LIMMAX
 10
210.0
 20
297.0
  9
$VIEWCTR
 10
105.0
 20
148.5
  9
$VIEWSIZE
 40
297.0
  9
$CLAYER
  8
0
  9
$LTSCALE
 40
19.36
  9
$CELTYPE
  6
BYLAYER
  9
$DIMSCALE
 40
1.0
  9
$DIMASZ
 40
2.0
  9
$DIMEXO
 40
0.5
  9
$DIMDLI
 40
13.376
  9
$DIMEXE
 40
2.0
  9
$DIMCEN
 40
3.168
  9
$DIMLFAC
 40
1.0
  9
$DIMBLK
  1
_FILLED
  9
$DIMALT
 70
0
  9
$DIMALTF
 40
0.0393700787
  9
$DIMTXT
 40
2.5
  9
$AUNITS
 70
0
  9
$PDMODE
 70
3
  9
$PDSIZE
 40
0.3125
  9
$TILEMODE
 70
1
  0
ENDSEC
  0
SECTION
  2
TABLES
  0
TABLE
  2
LTYPE
 70
6
  0
LTYPE
  2
BYBLOCK
 70
0
  3

 72
65
 73
0
 40
0.0
  0
LTYPE
  2
BYLAYER
 70
0
  3

 72
65
 73
0
 40
0.0
  0
LTYPE
  2
CONTINUOUS
 70
64
  3
Solid line
 72
65
 73
0
 40
0.0
  0
LTYPE
  2
CENTER
 70
64
  3
____ _ ____ _ ____ _ ____ _ ____ _ ____ _ ____
 72
65
 73
4
 40
0.6
 49
0.375
 49
-0.075
 49
0.075
 49
-0.075
  0
LTYPE
  2
HIDDEN
 70
64
  3
- - - - - - - - - - - - - - - - - - - -
 72
65
 73
2
 40
0.2
 49
0.1
 49
-0.1
  0
LTYPE
  2
PHANTOM
 70
64
  3
_____ _ _ _____ _ _ _____ _ _ _____
 72
65
 73
6
 40
0.8
 49
0.45
 49
-0.05
 49
0.1
 49
-0.05
 49
0.1
 49
-0.05
  0
LTYPE
  2
DOT
 70
64
  3
. . . . . . . . . . . . . . . . . . . .
 72
65
 73
2
 40
0.2
 49
0.1
 49
-0.1
  0
LTYPE
  2
DASHED
 70
64
  3
- - - - - - - - - - - - - - - - - - - -
 72
65
 73
2
 40
0.2
 49
0.1
 49
-0.1
  0
ENDTAB
  0
TABLE
  2
LAYER
 70
36
  0
LAYER
  2
0
 70
0
 62
7
  6
CONTINUOUS
  0
LAYER
  2
DEFAULT_1
 70
0
 62
7
  6
CENTER
  0
LAYER
  2
DEFAULT_2
 70
0
 62
8
  6
HIDDEN
  0
LAYER
  2
DEFAULT_3
 70
0
 62
7
  6
PHANTOM
  0
LAYER
  2
AXES
 70
0
 62
7
  6
CONTINUOUS
  0
LAYER
  2
COSMETIC
 70
0
 62
7
  6
CONTINUOUS
  0
LAYER
  2
COURBES
 70
0
 62
7
  6
CONTINUOUS
  0
LAYER
  2
FILETAGES
 70
0
 62
7
  6
CONTINUOUS
  0
LAYER
  2
PLANS
 70
0
 62
7
  6
CONTINUOUS
  0
LAYER
  2
PLANS_BASE_PRT
 70
0
 62
7
  6
CONTINUOUS
  0
LAYER
  2
PLANS_COUPES
 70
0
 62
7
  6
CONTINUOUS
  0
LAYER
  2
POINTS
 70
0
 62
7
  6
CONTINUOUS
  0
LAYER
  2
REPERES
 70
0
 62
7
  6
CONTINUOUS
  0
LAYER
  2
SOLIDE
 70
0
 62
7
  6
CONTINUOUS
  0
LAYER
  2
SURFACES
 70
0
 62
7
  6
CONTINUOUS
  0
ENDTAB
  0
TABLE
  2
STYLE
 70
1
  0
STYLE
  2
STANDARD
 70
0
 40
0.0
 41
0.8
 50
0.0
 71
0
 42
0.2
  3
txt
  4

  0
STYLE
  2
TEXTSTYLE_1
 70
0
 40
0.0
 41
0.8
 50
0.0
 71
0
 42
0.2
  3
gdt
  4

  0
ENDTAB
  0
ENDSEC
  0
SECTION
  2
BLOCKS
  0
BLOCK
  8
0
  2
_FILLED
 70
64
 10
0.0
 20
0.0
  0
SOLID
  8
0
  6
BYBLOCK
 62
0
 10
0.0
 20
0.0
 11
-1.0
 21
0.2
 12
-1.0
 22
-0.2
 13
-1.0
 23
-0.2
  0
ENDBLK
  8
0
  6
BYBLOCK
 62
0
  0
ENDSEC
  0
SECTION
  2
ENTITIES
  0
LINE
  8
0
 62
7
  6
CONTINUOUS
 10
0.0
 20
0.0
 11
210.0
 21
0.0
  0
LINE
  8
0
 62
7
  6
CONTINUOUS
 10
0.0
 20
0.0
 11
0.0
 21
297.0
  0
LINE
  8
0
 62
7
  6
CONTINUOUS
 10
210.0
 20
0.0
 11
210.0
 21
297.0
  0
LINE
  8
0
 62
7
  6
CONTINUOUS
 10
0.0
 20
297.0
 11
210.0
 21
297.0
  0
LINE
  8
AXES
 62
7
  6
CONTINUOUS
 10
61.3380935484
 20
216.9426509112
 11
61.3380935484
 21
220.3031265082
  0
LINE
  8
AXES
 62
7
  6
CONTINUOUS
 10
64.1704245013
 20
214.1103199582
 11
64.1704245013
 21
220.2990235248
  0
LINE
  8
AXES
 62
7
  6
CONTINUOUS
 10
140.4741935484
 20
144.8065509112
 11
120.4741935484
 21
144.8065509112
  0
LINE
  8
AXES
 62
7
  6
CONTINUOUS
 10
140.4741935484
 20
145.8065509112
 11
120.4741935484
 21
145.8065509112
  0
LINE
  8
AXES
 62
7
  6
CONTINUOUS
 10
140.4741935484
 20
146.8065509112
 11
120.4741935484
 21
146.8065509112
  0
LINE
  8
0
 62
7
  6
CONTINUOUS
 10
87.9741935484
 20
219.3065509112
 11
87.9741935484
 21
220.2645408067
  0
LINE
  8
AXES
 62
7
  6
CONTINUOUS
 10
85.9741935484
 20
192.3065509112
 11
61.3376574919
 21
216.9430869677
  0
LINE
  8
AXES
 62
7
  6
CONTINUOUS
 10
141.4741935484
 20
184.3065509112
 11
119.4741935484
 21
184.3065509112
  0
LINE
  8
AXES
 62
7
  6
CONTINUOUS
 10
143.6102935484
 20
189.3065509112
 11
115.9741935484
 21
189.3065509112
  0
LINE
  8
AXES
 62
7
  6
CONTINUOUS
 10
85.9741935484
 20
192.3065509112
 11
115.9741935484
 21
192.3065509112
  0
LINE
  8
AXES
 62
7
  6
CONTINUOUS
 10
115.9741935484
 20
192.3065509112
 11
115.9741935484
 21
189.3065509112
  0
LINE
  8
AXES
 62
7
  6
CONTINUOUS
 10
119.4741935484
 20
184.3065509112
 11
119.4741935484
 21
189.3065509112
  0
LINE
  8
AXES
 62
7
  6
CONTINUOUS
 10
120.4741935484
 20
144.8065509112
 11
120.4741935484
 21
145.8065509112
  0
LINE
  8
AXES
 62
7
  6
CONTINUOUS
 10
120.4741935484
 20
146.8065509112
 11
120.4741935484
 21
184.3065509112
  0
LINE
  8
0
 62
7
  6
CONTINUOUS
 10
117.9741935484
 20
217.3065509112
 11
89.9741935484
 21
217.3065509112
  0
LINE
  8
AXES
 62
7
  6
CONTINUOUS
 10
61.3380935484
 20
220.3031265082
 11
87.9741935484
 21
220.2645408067
  0
LINE
  8
AXES
 62
7
  6
CONTINUOUS
 10
143.6107296049
 20
191.6700148547
 11
117.9741935484
 21
217.3065509112
  0
LINE
  8
AXES
 62
7
  6
CONTINUOUS
 10
140.4741935484
 20
144.8065509112
 11
140.4741935484
 21
145.8065509112
  0
LINE
  8
AXES
 62
7
  6
CONTINUOUS
 10
140.4741935484
 20
146.8065509112
 11
140.4741935484
 21
184.3065509112
  0
LINE
  8
AXES
 62
7
  6
CONTINUOUS
 10
140.7779625954
 20
189.3065509112
 11
140.7779625954
 21
194.5027818641
  0
LINE
  8
AXES
 62
7
  6
CONTINUOUS
 10
141.4741935484
 20
184.3065509112
 11
141.4741935484
 21
189.3065509112
  0
LINE
  8
AXES
 62
7
  6
CONTINUOUS
 10
143.6102935484
 20
189.3065509112
 11
143.6102935484
 21
191.6704509112
  0
ARC
  8
0
 62
7
  6
CONTINUOUS
 10
89.9741935484
 20
219.3065509112
 40
2.0
 50
180.0
 51
270.0
  0
ARC
  8
AXES
 62
7
  6
CONTINUOUS
 10
140.4741935484
 20
146.3065509112
 40
0.5
 50
90.0
 51
270.0
  0
ARC
  8
AXES
 62
7
  6
CONTINUOUS
 10
120.4741935484
 20
146.3065509112
 40
0.5
 50
270.0
 51
90.0
  0
ENDSEC
  0
EOF
