999
DXF file: beta_arm_footprint_top.dxf
999
Pro/ENGINEER 2023154 by Parametric Technology Corporation
  0
SECTION
  2
HEADER
  9
$EXTMAX
 10
210.0
 20
297.0
 30
0.0
  9
$EXTMIN
 10
0.0
 20
0.0
 30
0.0
  9
$LIMMIN
 10
0.0
 20
0.0
  9
$LIMMAX
 10
210.0
 20
297.0
  9
$VIEWCTR
 10
105.0
 20
148.5
  9
$VIEWSIZE
 40
297.0
  9
$CLAYER
  8
0
  9
$LTSCALE
 40
19.36
  9
$CELTYPE
  6
BYLAYER
  9
$DIMSCALE
 40
1.0
  9
$DIMASZ
 40
2.0
  9
$DIMEXO
 40
0.5
  9
$DIMDLI
 40
13.376
  9
$DIMEXE
 40
2.0
  9
$DIMCEN
 40
3.168
  9
$DIMLFAC
 40
1.0
  9
$DIMBLK
  1
_FILLED
  9
$DIMALT
 70
0
  9
$DIMALTF
 40
0.0393700787
  9
$DIMTXT
 40
2.5
  9
$AUNITS
 70
0
  9
$PDMODE
 70
3
  9
$PDSIZE
 40
0.3125
  9
$TILEMODE
 70
1
  0
ENDSEC
  0
SECTION
  2
TABLES
  0
TABLE
  2
LTYPE
 70
6
  0
LTYPE
  2
BYBLOCK
 70
0
  3

 72
65
 73
0
 40
0.0
  0
LTYPE
  2
BYLAYER
 70
0
  3

 72
65
 73
0
 40
0.0
  0
LTYPE
  2
CONTINUOUS
 70
64
  3
Solid line
 72
65
 73
0
 40
0.0
  0
LTYPE
  2
CENTER
 70
64
  3
____ _ ____ _ ____ _ ____ _ ____ _ ____ _ ____
 72
65
 73
4
 40
0.6
 49
0.375
 49
-0.075
 49
0.075
 49
-0.075
  0
LTYPE
  2
HIDDEN
 70
64
  3
- - - - - - - - - - - - - - - - - - - -
 72
65
 73
2
 40
0.2
 49
0.1
 49
-0.1
  0
LTYPE
  2
PHANTOM
 70
64
  3
_____ _ _ _____ _ _ _____ _ _ _____
 72
65
 73
6
 40
0.8
 49
0.45
 49
-0.05
 49
0.1
 49
-0.05
 49
0.1
 49
-0.05
  0
LTYPE
  2
DOT
 70
64
  3
. . . . . . . . . . . . . . . . . . . .
 72
65
 73
2
 40
0.2
 49
0.1
 49
-0.1
  0
LTYPE
  2
DASHED
 70
64
  3
- - - - - - - - - - - - - - - - - - - -
 72
65
 73
2
 40
0.2
 49
0.1
 49
-0.1
  0
ENDTAB
  0
TABLE
  2
LAYER
 70
36
  0
LAYER
  2
0
 70
0
 62
7
  6
CONTINUOUS
  0
LAYER
  2
DEFAULT_1
 70
0
 62
7
  6
CENTER
  0
LAYER
  2
DEFAULT_2
 70
0
 62
8
  6
HIDDEN
  0
LAYER
  2
DEFAULT_3
 70
0
 62
7
  6
PHANTOM
  0
LAYER
  2
AXES
 70
0
 62
7
  6
CONTINUOUS
  0
LAYER
  2
COSMETIC
 70
0
 62
7
  6
CONTINUOUS
  0
LAYER
  2
COURBES
 70
0
 62
7
  6
CONTINUOUS
  0
LAYER
  2
FILETAGES
 70
0
 62
7
  6
CONTINUOUS
  0
LAYER
  2
PLANS
 70
0
 62
7
  6
CONTINUOUS
  0
LAYER
  2
PLANS_BASE_PRT
 70
0
 62
7
  6
CONTINUOUS
  0
LAYER
  2
PLANS_COUPES
 70
0
 62
7
  6
CONTINUOUS
  0
LAYER
  2
POINTS
 70
0
 62
7
  6
CONTINUOUS
  0
LAYER
  2
REPERES
 70
0
 62
7
  6
CONTINUOUS
  0
LAYER
  2
SOLIDE
 70
0
 62
7
  6
CONTINUOUS
  0
LAYER
  2
SURFACES
 70
0
 62
7
  6
CONTINUOUS
  0
ENDTAB
  0
TABLE
  2
STYLE
 70
1
  0
STYLE
  2
STANDARD
 70
0
 40
0.0
 41
0.8
 50
0.0
 71
0
 42
0.2
  3
txt
  4

  0
STYLE
  2
TEXTSTYLE_1
 70
0
 40
0.0
 41
0.8
 50
0.0
 71
0
 42
0.2
  3
gdt
  4

  0
ENDTAB
  0
ENDSEC
  0
SECTION
  2
BLOCKS
  0
BLOCK
  8
0
  2
_FILLED
 70
64
 10
0.0
 20
0.0
  0
SOLID
  8
0
  6
BYBLOCK
 62
0
 10
0.0
 20
0.0
 11
-1.0
 21
0.2
 12
-1.0
 22
-0.2
 13
-1.0
 23
-0.2
  0
ENDBLK
  8
0
  6
BYBLOCK
 62
0
  0
ENDSEC
  0
SECTION
  2
ENTITIES
  0
LINE
  8
0
 62
7
  6
CONTINUOUS
 10
0.0
 20
0.0
 11
210.0
 21
0.0
  0
LINE
  8
0
 62
7
  6
CONTINUOUS
 10
0.0
 20
0.0
 11
0.0
 21
297.0
  0
LINE
  8
0
 62
7
  6
CONTINUOUS
 10
210.0
 20
0.0
 11
210.0
 21
297.0
  0
LINE
  8
0
 62
7
  6
CONTINUOUS
 10
0.0
 20
297.0
 11
210.0
 21
297.0
  0
POLYLINE
  8
0
 62
7
  6
CONTINUOUS
 66
1
 70
0
  0
VERTEX
  8
0
 62
7
  6
CONTINUOUS
 10
60.5113071268
 20
140.9225806452
  0
VERTEX
  8
0
 62
7
  6
CONTINUOUS
 10
60.5578189
 20
139.9869986767
  0
VERTEX
  8
0
 62
7
  6
CONTINUOUS
 10
60.6938467715
 20
139.069222586
  0
VERTEX
  8
0
 62
7
  6
CONTINUOUS
 10
60.9206891856
 20
138.164971971
  0
VERTEX
  8
0
 62
7
  6
CONTINUOUS
 10
61.2344508092
 20
137.2870880377
  0
VERTEX
  8
0
 62
7
  6
CONTINUOUS
 10
61.6333448685
 20
136.4444671508
  0
VERTEX
  8
0
 62
7
  6
CONTINUOUS
 10
62.1123441301
 20
135.6446634315
  0
VERTEX
  8
0
 62
7
  6
CONTINUOUS
 10
62.6679605595
 20
134.8960537208
  0
VERTEX
  8
0
 62
7
  6
CONTINUOUS
 10
63.293789786
 20
134.2050662239
  0
VERTEX
  8
0
 62
7
  6
CONTINUOUS
 10
63.9847765579
 20
133.5792363407
  0
VERTEX
  8
0
 62
7
  6
CONTINUOUS
 10
64.7333854831
 20
133.0236193283
  0
VERTEX
  8
0
 62
7
  6
CONTINUOUS
 10
65.5331883632
 20
132.5446195641
  0
VERTEX
  8
0
 62
7
  6
CONTINUOUS
 10
66.375808366
 20
132.1457250863
  0
VERTEX
  8
0
 62
7
  6
CONTINUOUS
 10
67.2536913782
 20
131.8319631335
  0
VERTEX
  8
0
 62
7
  6
CONTINUOUS
 10
68.1579410444
 20
131.6051204813
  0
VERTEX
  8
0
 62
7
  6
CONTINUOUS
 10
69.0801676369
 20
131.4686540357
  0
VERTEX
  8
0
 62
7
  6
CONTINUOUS
 10
70.0112971589
 20
131.4225806452
  0
SEQEND
  0
POLYLINE
  8
0
 62
7
  6
CONTINUOUS
 66
1
 70
0
  0
VERTEX
  8
0
 62
7
  6
CONTINUOUS
 10
59.5127567989
 20
140.9225806452
  0
VERTEX
  8
0
 62
7
  6
CONTINUOUS
 10
59.5582133923
 20
139.9496828792
  0
VERTEX
  8
0
 62
7
  6
CONTINUOUS
 10
59.6915390646
 20
138.9932107081
  0
VERTEX
  8
0
 62
7
  6
CONTINUOUS
 10
59.9138623984
 20
138.0491975715
  0
VERTEX
  8
0
 62
7
  6
CONTINUOUS
 10
60.2217976462
 20
137.1295431502
  0
VERTEX
  8
0
 62
7
  6
CONTINUOUS
 10
60.6137972794
 20
136.2424554795
  0
VERTEX
  8
0
 62
7
  6
CONTINUOUS
 10
61.0854752235
 20
135.3950429349
  0
VERTEX
  8
0
 62
7
  6
CONTINUOUS
 10
61.6338020788
 20
134.5950894367
  0
VERTEX
  8
0
 62
7
  6
CONTINUOUS
 10
62.2531602927
 20
133.8487763869
  0
VERTEX
  8
0
 62
7
  6
CONTINUOUS
 10
62.9391417566
 20
133.1631985181
  0
VERTEX
  8
0
 62
7
  6
CONTINUOUS
 10
63.685088739
 20
132.5433997587
  0
VERTEX
  8
0
 62
7
  6
CONTINUOUS
 10
64.4853645356
 20
131.9955440514
  0
VERTEX
  8
0
 62
7
  6
CONTINUOUS
 10
65.3324979568
 20
131.5233660859
  0
VERTEX
  8
0
 62
7
  6
CONTINUOUS
 10
66.2198156536
 20
131.1318891092
  0
VERTEX
  8
0
 62
7
  6
CONTINUOUS
 10
67.1392874009
 20
130.8234113918
  0
VERTEX
  8
0
 62
7
  6
CONTINUOUS
 10
68.0834304579
 20
130.6016444246
  0
VERTEX
  8
0
 62
7
  6
CONTINUOUS
 10
69.0439290239
 20
130.4673717941
  0
VERTEX
  8
0
 62
7
  6
CONTINUOUS
 10
70.0127457817
 20
130.4225806452
  0
SEQEND
  0
POLYLINE
  8
0
 62
7
  6
CONTINUOUS
 66
1
 70
0
  0
VERTEX
  8
0
 62
7
  6
CONTINUOUS
 10
79.511287191
 20
140.9225806452
  0
VERTEX
  8
0
 62
7
  6
CONTINUOUS
 10
79.4647754178
 20
141.8581626136
  0
VERTEX
  8
0
 62
7
  6
CONTINUOUS
 10
79.3287475464
 20
142.7759387043
  0
VERTEX
  8
0
 62
7
  6
CONTINUOUS
 10
79.1019051323
 20
143.6801893193
  0
VERTEX
  8
0
 62
7
  6
CONTINUOUS
 10
78.7881435086
 20
144.5580732526
  0
VERTEX
  8
0
 62
7
  6
CONTINUOUS
 10
78.3892494493
 20
145.4006941395
  0
VERTEX
  8
0
 62
7
  6
CONTINUOUS
 10
77.9102501878
 20
146.2004978588
  0
VERTEX
  8
0
 62
7
  6
CONTINUOUS
 10
77.3546337583
 20
146.9491075696
  0
VERTEX
  8
0
 62
7
  6
CONTINUOUS
 10
76.7288045318
 20
147.6400950664
  0
VERTEX
  8
0
 62
7
  6
CONTINUOUS
 10
76.03781776
 20
148.2659249496
  0
VERTEX
  8
0
 62
7
  6
CONTINUOUS
 10
75.2892088347
 20
148.821541962
  0
VERTEX
  8
0
 62
7
  6
CONTINUOUS
 10
74.4894059546
 20
149.3005417262
  0
VERTEX
  8
0
 62
7
  6
CONTINUOUS
 10
73.6467859518
 20
149.699436204
  0
VERTEX
  8
0
 62
7
  6
CONTINUOUS
 10
72.7689029396
 20
150.0131981569
  0
VERTEX
  8
0
 62
7
  6
CONTINUOUS
 10
71.8646532734
 20
150.240040809
  0
VERTEX
  8
0
 62
7
  6
CONTINUOUS
 10
70.9424266809
 20
150.3765072546
  0
VERTEX
  8
0
 62
7
  6
CONTINUOUS
 10
70.0112971589
 20
150.4225806452
  0
SEQEND
  0
POLYLINE
  8
0
 62
7
  6
CONTINUOUS
 66
1
 70
0
  0
VERTEX
  8
0
 62
7
  6
CONTINUOUS
 10
79.4772949299
 20
140.9225806452
  0
VERTEX
  8
0
 62
7
  6
CONTINUOUS
 10
79.4544504383
 20
140.2462007451
  0
VERTEX
  8
0
 62
7
  6
CONTINUOUS
 10
79.3791087175
 20
139.5592301135
  0
VERTEX
  8
0
 62
7
  6
CONTINUOUS
 10
79.2504238133
 20
138.862085597
  0
VERTEX
  8
0
 62
7
  6
CONTINUOUS
 10
79.0709335889
 20
138.171748916
  0
VERTEX
  8
0
 62
7
  6
CONTINUOUS
 10
78.8412112114
 20
137.5033243775
  0
VERTEX
  8
0
 62
7
  6
CONTINUOUS
 10
78.5663048154
 20
136.8601917178
  0
VERTEX
  8
0
 62
7
  6
CONTINUOUS
 10
78.2485674486
 20
136.2471399117
  0
VERTEX
  8
0
 62
7
  6
CONTINUOUS
 10
77.8966575392
 20
135.6716328298
  0
VERTEX
  8
0
 62
7
  6
CONTINUOUS
 10
77.5159421747
 20
135.1381822793
  0
VERTEX
  8
0
 62
7
  6
CONTINUOUS
 10
77.118648425
 20
134.6533198403
  0
VERTEX
  8
0
 62
7
  6
CONTINUOUS
 10
76.7157281078
 20
134.2215898285
  0
VERTEX
  8
0
 62
7
  6
CONTINUOUS
 10
76.3163740675
 20
133.842378799
  0
VERTEX
  8
0
 62
7
  6
CONTINUOUS
 10
75.9336735137
 20
133.5169642019
  0
VERTEX
  8
0
 62
7
  6
CONTINUOUS
 10
75.5668951691
 20
133.2364758304
  0
VERTEX
  8
0
 62
7
  6
CONTINUOUS
 10
75.2196250038
 20
132.9953059501
  0
VERTEX
  8
0
 62
7
  6
CONTINUOUS
 10
74.8919984851
 20
132.7881537081
  0
VERTEX
  8
0
 62
7
  6
CONTINUOUS
 10
74.5859778311
 20
132.6110163484
  0
VERTEX
  8
0
 62
7
  6
CONTINUOUS
 10
74.2996687592
 20
132.4584587067
  0
VERTEX
  8
0
 62
7
  6
CONTINUOUS
 10
74.0294618484
 20
132.3258820062
  0
VERTEX
  8
0
 62
7
  6
CONTINUOUS
 10
73.7824647326
 20
132.213692565
  0
VERTEX
  8
0
 62
7
  6
CONTINUOUS
 10
73.562935524
 20
132.1209895895
  0
VERTEX
  8
0
 62
7
  6
CONTINUOUS
 10
73.3758133659
 20
132.0471180215
  0
VERTEX
  8
0
 62
7
  6
CONTINUOUS
 10
73.2268087633
 20
131.9912895852
  0
SEQEND
  0
POLYLINE
  8
0
 62
7
  6
CONTINUOUS
 66
1
 70
0
  0
VERTEX
  8
0
 62
7
  6
CONTINUOUS
 10
80.5127347645
 20
140.9225806452
  0
VERTEX
  8
0
 62
7
  6
CONTINUOUS
 10
80.4672781711
 20
141.8954784111
  0
VERTEX
  8
0
 62
7
  6
CONTINUOUS
 10
80.3339524988
 20
142.8519505822
  0
VERTEX
  8
0
 62
7
  6
CONTINUOUS
 10
80.111629165
 20
143.7959637188
  0
VERTEX
  8
0
 62
7
  6
CONTINUOUS
 10
79.8036939172
 20
144.7156181401
  0
VERTEX
  8
0
 62
7
  6
CONTINUOUS
 10
79.411694284
 20
145.6027058109
  0
VERTEX
  8
0
 62
7
  6
CONTINUOUS
 10
78.9400163399
 20
146.4501183554
  0
VERTEX
  8
0
 62
7
  6
CONTINUOUS
 10
78.3916894846
 20
147.2500718536
  0
VERTEX
  8
0
 62
7
  6
CONTINUOUS
 10
77.7723312707
 20
147.9963849035
  0
VERTEX
  8
0
 62
7
  6
CONTINUOUS
 10
77.0863498068
 20
148.6819627722
  0
VERTEX
  8
0
 62
7
  6
CONTINUOUS
 10
76.3404028243
 20
149.3017615316
  0
VERTEX
  8
0
 62
7
  6
CONTINUOUS
 10
75.5401270278
 20
149.8496172389
  0
VERTEX
  8
0
 62
7
  6
CONTINUOUS
 10
74.6929936066
 20
150.3217952044
  0
VERTEX
  8
0
 62
7
  6
CONTINUOUS
 10
73.8056759098
 20
150.7132721811
  0
VERTEX
  8
0
 62
7
  6
CONTINUOUS
 10
72.8862041625
 20
151.0217498985
  0
VERTEX
  8
0
 62
7
  6
CONTINUOUS
 10
71.9420611055
 20
151.2435168657
  0
VERTEX
  8
0
 62
7
  6
CONTINUOUS
 10
70.9815625395
 20
151.3777894963
  0
VERTEX
  8
0
 62
7
  6
CONTINUOUS
 10
70.0127457817
 20
151.4225806452
  0
SEQEND
  0
LINE
  8
AXES
 62
7
  6
CONTINUOUS
 10
137.2940916277
 20
125.9225806452
 11
114.4903225806
 21
125.9225806452
  0
LINE
  8
0
 62
7
  6
CONTINUOUS
 10
114.4903225806
 20
125.9225806452
 11
84.4903225806
 21
125.9225806452
  0
LINE
  8
AXES
 62
7
  6
CONTINUOUS
 10
60.6865535336
 20
125.9225806452
 11
84.4903225806
 21
125.9225806452
  0
LINE
  8
0
 62
7
  6
CONTINUOUS
 10
84.4903225806
 20
155.9225806452
 11
84.4903225806
 21
125.9225806452
  0
POLYLINE
  8
0
 62
7
  6
CONTINUOUS
 66
1
 70
0
  0
VERTEX
  8
0
 62
7
  6
CONTINUOUS
 10
70.0112971589
 20
131.4225806452
  0
VERTEX
  8
0
 62
7
  6
CONTINUOUS
 10
70.9424266809
 20
131.4686540357
  0
VERTEX
  8
0
 62
7
  6
CONTINUOUS
 10
71.8646532734
 20
131.6051204813
  0
VERTEX
  8
0
 62
7
  6
CONTINUOUS
 10
72.7689029396
 20
131.8319631335
  0
VERTEX
  8
0
 62
7
  6
CONTINUOUS
 10
73.6467859518
 20
132.1457250863
  0
VERTEX
  8
0
 62
7
  6
CONTINUOUS
 10
74.4894059546
 20
132.5446195641
  0
VERTEX
  8
0
 62
7
  6
CONTINUOUS
 10
75.2892088347
 20
133.0236193283
  0
VERTEX
  8
0
 62
7
  6
CONTINUOUS
 10
76.03781776
 20
133.5792363407
  0
VERTEX
  8
0
 62
7
  6
CONTINUOUS
 10
76.7288045318
 20
134.2050662239
  0
VERTEX
  8
0
 62
7
  6
CONTINUOUS
 10
77.3546337583
 20
134.8960537208
  0
VERTEX
  8
0
 62
7
  6
CONTINUOUS
 10
77.9102501878
 20
135.6446634315
  0
VERTEX
  8
0
 62
7
  6
CONTINUOUS
 10
78.3892494493
 20
136.4444671508
  0
VERTEX
  8
0
 62
7
  6
CONTINUOUS
 10
78.7881435086
 20
137.2870880377
  0
VERTEX
  8
0
 62
7
  6
CONTINUOUS
 10
79.1019051323
 20
138.164971971
  0
VERTEX
  8
0
 62
7
  6
CONTINUOUS
 10
79.3287475464
 20
139.069222586
  0
VERTEX
  8
0
 62
7
  6
CONTINUOUS
 10
79.4647754178
 20
139.9869986767
  0
VERTEX
  8
0
 62
7
  6
CONTINUOUS
 10
79.511287191
 20
140.9225806452
  0
SEQEND
  0
POLYLINE
  8
0
 62
7
  6
CONTINUOUS
 66
1
 70
0
  0
VERTEX
  8
0
 62
7
  6
CONTINUOUS
 10
70.0127457817
 20
130.4225806452
  0
VERTEX
  8
0
 62
7
  6
CONTINUOUS
 10
70.9815625395
 20
130.4673717941
  0
VERTEX
  8
0
 62
7
  6
CONTINUOUS
 10
71.9420611055
 20
130.6016444246
  0
VERTEX
  8
0
 62
7
  6
CONTINUOUS
 10
72.8862041625
 20
130.8234113918
  0
VERTEX
  8
0
 62
7
  6
CONTINUOUS
 10
73.8056759098
 20
131.1318891092
  0
VERTEX
  8
0
 62
7
  6
CONTINUOUS
 10
74.6929936066
 20
131.5233660859
  0
VERTEX
  8
0
 62
7
  6
CONTINUOUS
 10
75.5401270278
 20
131.9955440514
  0
VERTEX
  8
0
 62
7
  6
CONTINUOUS
 10
76.3404028243
 20
132.5433997587
  0
VERTEX
  8
0
 62
7
  6
CONTINUOUS
 10
77.0863498068
 20
133.1631985181
  0
VERTEX
  8
0
 62
7
  6
CONTINUOUS
 10
77.7723312707
 20
133.8487763869
  0
VERTEX
  8
0
 62
7
  6
CONTINUOUS
 10
78.3916894846
 20
134.5950894367
  0
VERTEX
  8
0
 62
7
  6
CONTINUOUS
 10
78.9400163399
 20
135.3950429349
  0
VERTEX
  8
0
 62
7
  6
CONTINUOUS
 10
79.411694284
 20
136.2424554795
  0
VERTEX
  8
0
 62
7
  6
CONTINUOUS
 10
79.8036939172
 20
137.1295431502
  0
VERTEX
  8
0
 62
7
  6
CONTINUOUS
 10
80.111629165
 20
138.0491975715
  0
VERTEX
  8
0
 62
7
  6
CONTINUOUS
 10
80.3339524988
 20
138.9932107081
  0
VERTEX
  8
0
 62
7
  6
CONTINUOUS
 10
80.4672781711
 20
139.9496828792
  0
VERTEX
  8
0
 62
7
  6
CONTINUOUS
 10
80.5127347645
 20
140.9225806452
  0
SEQEND
  0
POLYLINE
  8
AXES
 62
7
  6
CONTINUOUS
 66
1
 70
0
  0
VERTEX
  8
AXES
 62
7
  6
CONTINUOUS
 10
126.9903225806
 20
131.9225806452
  0
VERTEX
  8
AXES
 62
7
  6
CONTINUOUS
 10
125.9599309019
 20
131.9848846174
  0
VERTEX
  8
AXES
 62
7
  6
CONTINUOUS
 10
124.9693373572
 20
132.152425645
  0
VERTEX
  8
AXES
 62
7
  6
CONTINUOUS
 10
124.0108455872
 20
132.4317836897
  0
VERTEX
  8
AXES
 62
7
  6
CONTINUOUS
 10
123.1075446699
 20
132.8032188663
  0
VERTEX
  8
AXES
 62
7
  6
CONTINUOUS
 10
122.2802461856
 20
133.254037343
  0
VERTEX
  8
AXES
 62
7
  6
CONTINUOUS
 10
121.5280862677
 20
133.7696809212
  0
VERTEX
  8
AXES
 62
7
  6
CONTINUOUS
 10
120.858738519
 20
134.3342559751
  0
VERTEX
  8
AXES
 62
7
  6
CONTINUOUS
 10
120.2674021105
 20
134.9390749543
  0
VERTEX
  8
AXES
 62
7
  6
CONTINUOUS
 10
119.7529124757
 20
135.5728006088
  0
VERTEX
  8
AXES
 62
7
  6
CONTINUOUS
 10
119.31203443
 20
136.2274884122
  0
VERTEX
  8
AXES
 62
7
  6
CONTINUOUS
 10
118.9428214271
 20
136.8923939004
  0
VERTEX
  8
AXES
 62
7
  6
CONTINUOUS
 10
118.6402429867
 20
137.5645796364
  0
VERTEX
  8
AXES
 62
7
  6
CONTINUOUS
 10
118.3997899423
 20
138.2374598154
  0
VERTEX
  8
AXES
 62
7
  6
CONTINUOUS
 10
118.2179518065
 20
138.9112350754
  0
VERTEX
  8
AXES
 62
7
  6
CONTINUOUS
 10
118.0900831906
 20
139.5836144483
  0
VERTEX
  8
AXES
 62
7
  6
CONTINUOUS
 10
118.0150796314
 20
140.2554869468
  0
VERTEX
  8
AXES
 62
7
  6
CONTINUOUS
 10
117.9899423791
 20
140.9267378019
  0
VERTEX
  8
AXES
 62
7
  6
CONTINUOUS
 10
118.0157089044
 20
141.5980873902
  0
VERTEX
  8
AXES
 62
7
  6
CONTINUOUS
 10
118.0914141669
 20
142.270304242
  0
VERTEX
  8
AXES
 62
7
  6
CONTINUOUS
 10
118.22006695
 20
142.9431291285
  0
VERTEX
  8
AXES
 62
7
  6
CONTINUOUS
 10
118.4028277411
 20
143.6173612853
  0
VERTEX
  8
AXES
 62
7
  6
CONTINUOUS
 10
118.6442763875
 20
144.290593849
  0
VERTEX
  8
AXES
 62
7
  6
CONTINUOUS
 10
118.9479982432
 20
144.9629892435
  0
VERTEX
  8
AXES
 62
7
  6
CONTINUOUS
 10
119.3181372753
 20
145.6276388426
  0
VERTEX
  8
AXES
 62
7
  6
CONTINUOUS
 10
119.75931454
 20
146.2810685497
  0
VERTEX
  8
AXES
 62
7
  6
CONTINUOUS
 10
120.2736841233
 20
146.9131371998
  0
VERTEX
  8
AXES
 62
7
  6
CONTINUOUS
 10
120.864553315
 20
147.5163226395
  0
VERTEX
  8
AXES
 62
7
  6
CONTINUOUS
 10
121.5330835604
 20
148.0792937368
  0
VERTEX
  8
AXES
 62
7
  6
CONTINUOUS
 10
122.283983091
 20
148.5934627881
  0
VERTEX
  8
AXES
 62
7
  6
CONTINUOUS
 10
123.1099188394
 20
149.0430773544
  0
VERTEX
  8
AXES
 62
7
  6
CONTINUOUS
 10
124.0120209745
 20
149.4138127448
  0
VERTEX
  8
AXES
 62
7
  6
CONTINUOUS
 10
124.9696080197
 20
149.6927980121
  0
VERTEX
  8
AXES
 62
7
  6
CONTINUOUS
 10
125.9598371276
 20
149.8601815817
  0
VERTEX
  8
AXES
 62
7
  6
CONTINUOUS
 10
126.9903225806
 20
149.9225806452
  0
SEQEND
  0
POLYLINE
  8
0
 62
7
  6
CONTINUOUS
 66
1
 70
0
  0
VERTEX
  8
0
 62
7
  6
CONTINUOUS
 10
73.1178657432
 20
131.9525279183
  0
VERTEX
  8
0
 62
7
  6
CONTINUOUS
 10
73.0533127755
 20
131.9299176737
  0
VERTEX
  8
0
 62
7
  6
CONTINUOUS
 10
73.031707037
 20
131.9225806452
  0
SEQEND
  0
POLYLINE
  8
0
 62
7
  6
CONTINUOUS
 66
1
 70
0
  0
VERTEX
  8
0
 62
7
  6
CONTINUOUS
 10
73.031707037
 20
149.9225806452
  0
VERTEX
  8
0
 62
7
  6
CONTINUOUS
 10
73.0533279865
 20
149.9152699798
  0
VERTEX
  8
0
 62
7
  6
CONTINUOUS
 10
73.1174058834
 20
149.8927947481
  0
SEQEND
  0
POLYLINE
  8
0
 62
7
  6
CONTINUOUS
 66
1
 70
0
  0
VERTEX
  8
0
 62
7
  6
CONTINUOUS
 10
73.2252658715
 20
149.8543987784
  0
VERTEX
  8
0
 62
7
  6
CONTINUOUS
 10
73.3729325193
 20
149.7991459453
  0
VERTEX
  8
0
 62
7
  6
CONTINUOUS
 10
73.5585382495
 20
149.7259511613
  0
VERTEX
  8
0
 62
7
  6
CONTINUOUS
 10
73.7770846444
 20
149.6338171356
  0
VERTEX
  8
0
 62
7
  6
CONTINUOUS
 10
74.024674707
 20
149.5215703976
  0
VERTEX
  8
0
 62
7
  6
CONTINUOUS
 10
74.2961365982
 20
149.3885055158
  0
VERTEX
  8
0
 62
7
  6
CONTINUOUS
 10
74.5840575126
 20
149.2352132151
  0
VERTEX
  8
0
 62
7
  6
CONTINUOUS
 10
74.8912633515
 20
149.0574518399
  0
VERTEX
  8
0
 62
7
  6
CONTINUOUS
 10
75.2183730522
 20
148.8506702301
  0
VERTEX
  8
0
 62
7
  6
CONTINUOUS
 10
75.5645947015
 20
148.6103589309
  0
VERTEX
  8
0
 62
7
  6
CONTINUOUS
 10
75.93066122
 20
148.3306156271
  0
VERTEX
  8
0
 62
7
  6
CONTINUOUS
 10
76.3126170435
 20
148.0061473591
  0
VERTEX
  8
0
 62
7
  6
CONTINUOUS
 10
76.7109585419
 20
147.6283906841
  0
VERTEX
  8
0
 62
7
  6
CONTINUOUS
 10
77.1130628336
 20
147.1982052194
  0
VERTEX
  8
0
 62
7
  6
CONTINUOUS
 10
77.5101675139
 20
146.7145381278
  0
VERTEX
  8
0
 62
7
  6
CONTINUOUS
 10
77.8911875223
 20
146.1817792809
  0
VERTEX
  8
0
 62
7
  6
CONTINUOUS
 10
78.2440515384
 20
145.6059618843
  0
VERTEX
  8
0
 62
7
  6
CONTINUOUS
 10
78.5629559379
 20
144.9920522831
  0
VERTEX
  8
0
 62
7
  6
CONTINUOUS
 10
78.8388256304
 20
144.3480357718
  0
VERTEX
  8
0
 62
7
  6
CONTINUOUS
 10
79.0694036952
 20
143.6784722165
  0
VERTEX
  8
0
 62
7
  6
CONTINUOUS
 10
79.2496208872
 20
142.9865334829
  0
VERTEX
  8
0
 62
7
  6
CONTINUOUS
 10
79.3788390896
 20
142.2877920827
  0
VERTEX
  8
0
 62
7
  6
CONTINUOUS
 10
79.4544394541
 20
141.5997060929
  0
VERTEX
  8
0
 62
7
  6
CONTINUOUS
 10
79.4772949299
 20
140.9225806452
  0
SEQEND
  0
POLYLINE
  8
0
 62
7
  6
CONTINUOUS
 66
1
 70
0
  0
VERTEX
  8
0
 62
7
  6
CONTINUOUS
 10
70.0112971589
 20
150.4225806452
  0
VERTEX
  8
0
 62
7
  6
CONTINUOUS
 10
69.0801676369
 20
150.3765072546
  0
VERTEX
  8
0
 62
7
  6
CONTINUOUS
 10
68.1579410444
 20
150.240040809
  0
VERTEX
  8
0
 62
7
  6
CONTINUOUS
 10
67.2536913782
 20
150.0131981569
  0
VERTEX
  8
0
 62
7
  6
CONTINUOUS
 10
66.375808366
 20
149.699436204
  0
VERTEX
  8
0
 62
7
  6
CONTINUOUS
 10
65.5331883632
 20
149.3005417262
  0
VERTEX
  8
0
 62
7
  6
CONTINUOUS
 10
64.7333854831
 20
148.821541962
  0
VERTEX
  8
0
 62
7
  6
CONTINUOUS
 10
63.9847765579
 20
148.2659249496
  0
VERTEX
  8
0
 62
7
  6
CONTINUOUS
 10
63.293789786
 20
147.6400950664
  0
VERTEX
  8
0
 62
7
  6
CONTINUOUS
 10
62.6679605595
 20
146.9491075696
  0
VERTEX
  8
0
 62
7
  6
CONTINUOUS
 10
62.1123441301
 20
146.2004978588
  0
VERTEX
  8
0
 62
7
  6
CONTINUOUS
 10
61.6333448685
 20
145.4006941395
  0
VERTEX
  8
0
 62
7
  6
CONTINUOUS
 10
61.2344508092
 20
144.5580732526
  0
VERTEX
  8
0
 62
7
  6
CONTINUOUS
 10
60.9206891856
 20
143.6801893193
  0
VERTEX
  8
0
 62
7
  6
CONTINUOUS
 10
60.6938467715
 20
142.7759387043
  0
VERTEX
  8
0
 62
7
  6
CONTINUOUS
 10
60.5578189
 20
141.8581626136
  0
VERTEX
  8
0
 62
7
  6
CONTINUOUS
 10
60.5113071268
 20
140.9225806452
  0
SEQEND
  0
POLYLINE
  8
0
 62
7
  6
CONTINUOUS
 66
1
 70
0
  0
VERTEX
  8
0
 62
7
  6
CONTINUOUS
 10
70.0127457817
 20
151.4225806452
  0
VERTEX
  8
0
 62
7
  6
CONTINUOUS
 10
69.0439290239
 20
151.3777894963
  0
VERTEX
  8
0
 62
7
  6
CONTINUOUS
 10
68.0834304579
 20
151.2435168657
  0
VERTEX
  8
0
 62
7
  6
CONTINUOUS
 10
67.1392874009
 20
151.0217498985
  0
VERTEX
  8
0
 62
7
  6
CONTINUOUS
 10
66.2198156536
 20
150.7132721811
  0
VERTEX
  8
0
 62
7
  6
CONTINUOUS
 10
65.3324979568
 20
150.3217952044
  0
VERTEX
  8
0
 62
7
  6
CONTINUOUS
 10
64.4853645356
 20
149.8496172389
  0
VERTEX
  8
0
 62
7
  6
CONTINUOUS
 10
63.685088739
 20
149.3017615316
  0
VERTEX
  8
0
 62
7
  6
CONTINUOUS
 10
62.9391417566
 20
148.6819627722
  0
VERTEX
  8
0
 62
7
  6
CONTINUOUS
 10
62.2531602927
 20
147.9963849035
  0
VERTEX
  8
0
 62
7
  6
CONTINUOUS
 10
61.6338020788
 20
147.2500718536
  0
VERTEX
  8
0
 62
7
  6
CONTINUOUS
 10
61.0854752235
 20
146.4501183554
  0
VERTEX
  8
0
 62
7
  6
CONTINUOUS
 10
60.6137972794
 20
145.6027058109
  0
VERTEX
  8
0
 62
7
  6
CONTINUOUS
 10
60.2217976462
 20
144.7156181401
  0
VERTEX
  8
0
 62
7
  6
CONTINUOUS
 10
59.9138623984
 20
143.7959637188
  0
VERTEX
  8
0
 62
7
  6
CONTINUOUS
 10
59.6915390646
 20
142.8519505822
  0
VERTEX
  8
0
 62
7
  6
CONTINUOUS
 10
59.5582133923
 20
141.8954784111
  0
VERTEX
  8
0
 62
7
  6
CONTINUOUS
 10
59.5127567989
 20
140.9225806452
  0
SEQEND
  0
POLYLINE
  8
AXES
 62
7
  6
CONTINUOUS
 66
1
 70
0
  0
VERTEX
  8
AXES
 62
7
  6
CONTINUOUS
 10
126.9903225806
 20
149.9225806452
  0
VERTEX
  8
AXES
 62
7
  6
CONTINUOUS
 10
128.0207142594
 20
149.8602766729
  0
VERTEX
  8
AXES
 62
7
  6
CONTINUOUS
 10
129.0113078041
 20
149.6927356453
  0
VERTEX
  8
AXES
 62
7
  6
CONTINUOUS
 10
129.969799574
 20
149.4133776006
  0
VERTEX
  8
AXES
 62
7
  6
CONTINUOUS
 10
130.8731004914
 20
149.041942424
  0
VERTEX
  8
AXES
 62
7
  6
CONTINUOUS
 10
131.7003989756
 20
148.5911239473
  0
VERTEX
  8
AXES
 62
7
  6
CONTINUOUS
 10
132.4525588936
 20
148.0754803691
  0
VERTEX
  8
AXES
 62
7
  6
CONTINUOUS
 10
133.1219066423
 20
147.5109053152
  0
VERTEX
  8
AXES
 62
7
  6
CONTINUOUS
 10
133.7132430508
 20
146.906086336
  0
VERTEX
  8
AXES
 62
7
  6
CONTINUOUS
 10
134.2277326856
 20
146.2723606815
  0
VERTEX
  8
AXES
 62
7
  6
CONTINUOUS
 10
134.6686107312
 20
145.6176728782
  0
VERTEX
  8
AXES
 62
7
  6
CONTINUOUS
 10
135.0378237342
 20
144.9527673899
  0
VERTEX
  8
AXES
 62
7
  6
CONTINUOUS
 10
135.3404021746
 20
144.2805816539
  0
VERTEX
  8
AXES
 62
7
  6
CONTINUOUS
 10
135.5808552189
 20
143.6077014749
  0
VERTEX
  8
AXES
 62
7
  6
CONTINUOUS
 10
135.7626933548
 20
142.9339262149
  0
VERTEX
  8
AXES
 62
7
  6
CONTINUOUS
 10
135.8905619707
 20
142.261546842
  0
VERTEX
  8
AXES
 62
7
  6
CONTINUOUS
 10
135.9655655299
 20
141.5896743435
  0
VERTEX
  8
AXES
 62
7
  6
CONTINUOUS
 10
135.9907027822
 20
140.9184234885
  0
VERTEX
  8
AXES
 62
7
  6
CONTINUOUS
 10
135.9649362569
 20
140.2470739001
  0
VERTEX
  8
AXES
 62
7
  6
CONTINUOUS
 10
135.8892309943
 20
139.5748570483
  0
VERTEX
  8
AXES
 62
7
  6
CONTINUOUS
 10
135.7605782113
 20
138.9020321618
  0
VERTEX
  8
AXES
 62
7
  6
CONTINUOUS
 10
135.5778174202
 20
138.227800005
  0
VERTEX
  8
AXES
 62
7
  6
CONTINUOUS
 10
135.3363687738
 20
137.5545674413
  0
VERTEX
  8
AXES
 62
7
  6
CONTINUOUS
 10
135.0326469181
 20
136.8821720468
  0
VERTEX
  8
AXES
 62
7
  6
CONTINUOUS
 10
134.662507886
 20
136.2175224478
  0
VERTEX
  8
AXES
 62
7
  6
CONTINUOUS
 10
134.2213306213
 20
135.5640927406
  0
VERTEX
  8
AXES
 62
7
  6
CONTINUOUS
 10
133.7069610379
 20
134.9320240906
  0
VERTEX
  8
AXES
 62
7
  6
CONTINUOUS
 10
133.1160918463
 20
134.3288386508
  0
VERTEX
  8
AXES
 62
7
  6
CONTINUOUS
 10
132.4475616008
 20
133.7658675535
  0
VERTEX
  8
AXES
 62
7
  6
CONTINUOUS
 10
131.6966620703
 20
133.2516985022
  0
VERTEX
  8
AXES
 62
7
  6
CONTINUOUS
 10
130.8707263218
 20
132.8020839359
  0
VERTEX
  8
AXES
 62
7
  6
CONTINUOUS
 10
129.9686241868
 20
132.4313485455
  0
VERTEX
  8
AXES
 62
7
  6
CONTINUOUS
 10
129.0110371416
 20
132.1523632782
  0
VERTEX
  8
AXES
 62
7
  6
CONTINUOUS
 10
128.0208080337
 20
131.9849797086
  0
VERTEX
  8
AXES
 62
7
  6
CONTINUOUS
 10
126.9903225806
 20
131.9225806452
  0
SEQEND
  0
LINE
  8
AXES
 62
7
  6
CONTINUOUS
 10
114.4903225806
 20
155.9225806452
 11
114.4903225806
 21
125.9225806452
  0
LINE
  8
AXES
 62
7
  6
CONTINUOUS
 10
137.2940916277
 20
155.9225806452
 11
114.4903225806
 21
155.9225806452
  0
LINE
  8
AXES
 62
7
  6
CONTINUOUS
 10
60.6865535336
 20
155.9225806452
 11
84.4903225806
 21
155.9225806452
  0
LINE
  8
0
 62
7
  6
CONTINUOUS
 10
84.4903225806
 20
155.9225806452
 11
114.4903225806
 21
155.9225806452
  0
ARC
  8
AXES
 62
7
  6
CONTINUOUS
 10
106.4903225806
 20
128.9225806452
 40
1.0
 50
255.0
 51
195.0
  0
ARC
  8
AXES
 62
7
  6
CONTINUOUS
 10
91.4903225806
 20
128.9225806452
 40
1.0
 50
255.0
 51
195.0
  0
CIRCLE
  8
AXES
 62
7
  6
CONTINUOUS
 10
91.4903225806
 20
128.9225806452
 40
0.8
  0
CIRCLE
  8
AXES
 62
7
  6
CONTINUOUS
 10
106.4903225806
 20
128.9225806452
 40
0.8
  0
CIRCLE
  8
AXES
 62
7
  6
CONTINUOUS
 10
96.9903225806
 20
140.9225806452
 40
4.0
  0
ARC
  8
AXES
 62
7
  6
CONTINUOUS
 10
91.4903225806
 20
152.9225806452
 40
1.0
 50
255.0
 51
195.0
  0
CIRCLE
  8
AXES
 62
7
  6
CONTINUOUS
 10
91.4903225806
 20
152.9225806452
 40
0.8
  0
ARC
  8
AXES
 62
7
  6
CONTINUOUS
 10
98.9903225806
 20
140.9225806452
 40
41.1361
 50
338.6143724365
 51
21.3856275635
  0
ARC
  8
AXES
 62
7
  6
CONTINUOUS
 10
98.9903225806
 20
140.9225806452
 40
41.1361
 50
158.6143724365
 51
201.3856275635
  0
ARC
  8
AXES
 62
7
  6
CONTINUOUS
 10
106.4903225806
 20
152.9225806452
 40
1.0
 50
255.0
 51
195.0
  0
CIRCLE
  8
AXES
 62
7
  6
CONTINUOUS
 10
106.4903225806
 20
152.9225806452
 40
0.8
  0
CIRCLE
  8
AXES
 62
7
  6
CONTINUOUS
 10
126.9903225806
 20
140.9225806452
 40
8.5
  0
ENDSEC
  0
EOF
